<svg width="188" height="114" viewBox="0 0 188 114" fill="none" xmlns="http://www.w3.org/2000/svg">
<path fill-rule="evenodd" clip-rule="evenodd" d="M66.8446 31.6411C66.7863 31.6023 66.6892 31.4081 66.5533 31.3499C66.3591 31.311 66.1261 31.6023 66.1261 31.7965C66.1261 32.0295 66.2621 32.1266 66.4951 32.1266C66.6892 32.1266 66.8446 31.9907 66.8446 31.6411ZM62.9611 32.1848C62.9222 32.1848 62.9222 32.1848 62.864 32.1848C62.631 33.1557 62.1455 34.0683 62.2426 35.1363C62.2426 35.3305 62.2426 35.5246 62.2426 35.7188C62.2426 36.8839 62.5339 37.9907 63.0193 39.0004C63.6407 40.3208 64.7669 40.9421 66.165 41.0975C66.2232 41.0975 66.2232 41.0392 66.3203 41.0392C66.2232 41.0004 66.2232 40.9421 66.1261 40.9033C65.7378 40.6509 65.2912 40.3596 64.9028 40.1266C64.2232 39.6412 63.5436 39.0586 63.2523 38.2237C63.1164 37.8936 63.0193 37.5052 62.9222 37.1751C62.5727 36.2043 62.5727 35.1751 62.6698 34.2043C62.7281 33.5246 62.864 32.8644 62.9611 32.1848ZM100.32 27.913C100.32 27.9712 100.32 27.9712 100.32 28.0101C100.553 27.9712 100.748 27.9712 100.981 27.913C101.621 27.8159 102.243 27.68 102.825 27.5829C103.019 27.5246 103.214 27.3305 103.214 27.1363C103.214 26.9033 103.117 26.7479 102.883 26.7091C102.631 26.6508 102.437 26.7091 102.204 26.7479C101.951 26.8062 101.757 26.9033 101.524 26.9033C100.806 27.0392 100.068 27.1363 99.2912 27.2916C98.8058 27.3887 98.3786 27.5829 97.8932 27.68C97.0582 27.8741 96.2427 28.1072 95.3689 28.3013C94.4563 28.5538 93.4854 28.7479 92.5145 28.9227C92.3592 28.9809 92.1262 28.9227 92.1844 29.1751C92.2233 29.4081 92.4174 29.311 92.5534 29.3693C92.6116 29.3693 92.6116 29.3693 92.6505 29.3693C93.1359 29.2722 93.6213 29.1751 94.0679 29.078C94.5922 28.9809 95.1747 28.845 95.7184 28.7479C96.6699 28.5538 97.6408 28.3984 98.6116 28.2625C99.2912 28.1072 99.7767 28.0101 100.32 27.913ZM86.7087 22.2042C86.3203 22.4372 85.9708 22.6897 85.5825 22.8838C85.2524 23.078 84.9029 23.1751 84.5728 23.311C84.4757 23.3693 84.3786 23.4664 84.3203 23.5635C83.8349 24.5732 83.2718 25.5829 82.9223 26.7091C82.6893 27.4858 82.3398 28.2042 82.0097 28.9227C81.466 30.1848 81.0776 31.5441 80.3592 32.7091C80.3592 32.7674 80.3009 32.7674 80.3009 32.8062C80.3009 32.9033 80.3009 33.1557 80.3592 33.1557C80.4563 33.1945 80.6504 33.1945 80.7475 33.1557C80.8834 33.0586 80.9805 32.9033 81.0776 32.7674C81.33 32.4761 81.5242 32.1848 81.7572 31.9324C82.3009 31.311 82.8834 30.6703 83.5631 30.1848C83.6019 30.1848 83.6019 30.146 83.6019 30.146C84.0873 29.6606 84.5728 29.1751 85.0582 28.6897C85.097 28.6508 85.1553 28.5926 85.2524 28.4955C85.932 27.8159 86.6504 27.1945 87.3301 26.5149C87.8155 26.0683 88.3009 25.6411 88.7864 25.2528C89.3689 24.7673 90.0485 24.379 90.631 23.8935C91.2136 23.4664 91.7378 22.9227 92.2621 22.4372C92.4563 22.3013 92.4174 22.0101 92.2233 21.913C91.932 21.8159 91.699 21.913 91.5048 22.1071C91.3106 22.2431 91.1553 22.4372 90.9611 22.5926C90.1456 23.1751 89.2718 23.7576 88.4369 24.3402C87.8737 24.7673 87.2912 25.2916 86.7087 25.777C86.5534 25.8741 86.4563 26.0295 86.3592 26.1266C85.9708 26.3596 85.6407 26.7479 85.3883 27.1363C85.2524 27.3887 85 27.5829 84.8058 27.7771C84.3203 28.2625 83.8349 28.6897 83.3689 29.1751C83.0194 29.5635 82.6893 29.9518 82.3398 30.3402C82.0485 30.6703 81.7184 31.0198 81.4271 31.3499C81.3689 31.447 81.2718 31.5052 81.1747 31.5441C81.1359 31.5441 81.1359 31.5052 81.0776 31.5052C82.7864 28.2625 84.9029 25.2916 86.7087 22.2042ZM99.7379 24.2431C99.7379 24.1848 99.7379 24.1848 99.7379 24.146C99.6796 24.146 99.6408 24.0877 99.5825 24.0877C98.5145 23.8935 97.4077 23.6994 96.301 23.5052C96.2039 23.5052 96.0097 23.5052 95.9126 23.5635C95.0776 24.0489 94.2621 24.5732 93.4272 25.0974C92.8446 25.4858 92.2815 25.9324 91.6407 26.3207C90.1844 27.2334 88.631 27.913 87.097 28.5926C86.2621 28.9809 85.4854 29.4081 84.864 30.0877C84.6116 30.3402 84.3203 30.5732 84.0873 30.8256C83.932 30.9615 83.7961 31.1169 83.7572 31.3499C83.7961 31.3499 83.8349 31.3499 83.8932 31.3499C85.2912 30.7285 86.7087 30.0489 88.1068 29.4081C88.8252 29.078 89.5048 28.7479 90.2427 28.4955C90.864 28.3013 91.4466 28.0683 92.0873 27.7771C92.6116 27.5829 93.0971 27.3305 93.5825 27.0974C94.7864 26.5149 96.0097 25.8741 97.2136 25.2916C97.7379 25.0003 98.3204 24.7673 98.9029 24.5343C99.2524 24.379 99.4854 24.2819 99.7379 24.2431ZM97.1553 38.4179C97.5048 37.8936 97.8349 37.3693 98.1262 36.7868C98.6699 35.913 99.1553 35.0392 99.6408 34.1654C100.32 32.9615 100.981 31.7382 101.718 30.5343C102.01 30.0877 102.34 29.6606 102.631 29.2722C102.689 29.2139 102.728 29.1169 102.786 29.078C102.495 28.845 102.301 28.8839 102.107 29.1169C101.757 29.5635 101.427 29.9907 101.136 30.4761C100.612 31.2528 100.068 32.0877 99.5437 32.8644C98.767 34.0101 97.932 35.1363 97.2524 36.3402C97.1165 36.6314 96.8641 36.9227 96.6311 37.2722C96.5922 36.9227 96.5922 36.6314 96.6311 36.3402C97.0194 34.7868 97.4466 33.2334 97.8932 31.6994C97.9903 31.3499 98.1845 31.0198 98.3786 30.6314C98.3204 30.5732 98.2815 30.5732 98.1845 30.5732C96.534 30.5732 94.9417 30.5343 93.2912 30.5343C93.0388 30.5343 92.7475 30.5343 92.5145 30.4761C91.5048 30.3402 90.4757 30.4373 89.5048 30.379C89.0776 30.379 88.7281 30.5343 88.398 30.7285C87.6213 31.1169 86.9029 31.5052 86.165 31.9324C85.4466 32.379 84.8058 32.9033 84.1262 33.3887C83.7961 33.6217 83.466 33.8159 83.1165 33.9712C82.4368 34.3013 81.7572 34.6509 81.0776 34.9809C80.5533 35.2334 80.0097 35.4664 79.4854 35.7188C79.097 35.8547 78.9611 36.1072 78.9999 36.5926C79.2912 36.4955 79.5825 36.3402 79.9126 36.2043C79.8737 36.7868 79.9708 37.3693 79.4465 37.8353C79.1941 38.0295 78.9999 38.3208 78.6698 38.4179C78.5728 38.4761 78.4757 38.612 78.4174 38.7674C77.9902 40.3208 77.5048 41.8548 77.0582 43.4082C76.9223 43.9907 76.9223 44.6315 76.7669 45.214C76.631 46.1266 76.4368 47.0004 76.2427 47.913C76.1844 48.2625 75.9902 48.5538 75.8543 48.8451C75.7572 49.0781 75.6019 49.1363 75.3689 48.981C74.4951 48.5538 73.6795 48.1072 72.6504 47.913C72.5533 48.0101 72.5145 48.1072 72.3591 48.2625C72.165 48.0684 72.0291 47.8742 71.8349 47.7188C71.4465 47.3887 71.0193 47.0392 70.631 46.748C70.4368 46.612 70.2426 46.515 70.0485 46.8451C70.7281 47.4858 71.4465 48.1072 72.1261 48.7868C72.8058 49.4664 73.6213 49.8159 74.4562 50.2431C74.8446 50.4373 75.1747 50.7286 75.5048 51.0198C76.3786 51.8354 76.864 52.9033 77.0582 54.1266C77.2524 55.4664 77.6407 56.7286 77.8931 58.0878C78.1262 59.4859 78.3203 60.9033 78.5145 62.3014C78.5728 62.5927 78.4757 62.8451 78.1844 63.0781C77.6407 62.5927 77.1164 62.1655 76.631 61.68C76.5728 61.6218 76.5339 61.5247 76.5339 61.4859C76.5339 60.9422 76.5339 60.4179 76.4757 59.9325C76.4757 59.7383 76.4757 59.5441 76.4368 59.3499C76.1456 58.6703 76.0485 57.8936 76.0485 57.1752C76.0485 56.9227 76.0485 56.6897 76.0873 56.4373C76.1844 56.1072 76.1456 55.8159 75.9902 55.5247C75.6019 54.6509 75.2329 53.7771 74.7863 52.8645C74.6504 52.515 74.398 52.282 74.0679 52.1266C73.2912 51.7965 72.5533 51.3111 71.932 50.7674C71.7378 50.5732 71.4854 50.4761 71.1941 50.282C70.3397 51.6994 69.563 53.1557 68.398 54.3208C68.398 54.3596 68.4368 54.3985 68.4368 54.3985C68.6892 54.3985 68.9223 54.4567 69.1164 54.3985C69.9902 54.3985 70.6698 54.8839 71.097 55.5247C71.3883 55.9519 71.3494 56.4956 71.0582 56.981C70.631 57.6606 70.1844 58.3402 69.7572 59.0004C69.1747 59.9713 68.5922 60.9422 68.0485 61.9713C67.8155 62.4567 67.9125 62.7868 68.398 63.0781C68.9223 63.3694 69.563 63.4082 70.1456 63.5053C71.2523 63.6606 72.3591 63.8548 73.4271 64.2431C73.8155 64.3791 74.0679 64.6315 74.2621 64.9616C74.6893 65.6412 75.1359 66.3208 75.563 67.0587C75.7572 67.3888 75.8931 67.7189 76.0485 68.0684C75.9902 68.1072 75.9902 68.1072 75.9514 68.1655C75.7961 68.1072 75.6019 68.0684 75.466 68.0101C75.1359 67.9131 74.7475 67.816 74.398 67.68C74.165 67.583 73.9708 67.4859 73.8737 67.2529C73.5242 66.3208 72.8058 65.7965 71.9708 65.4082C71.3883 65.1169 70.7669 64.9616 70.1456 64.9616C69.8543 64.9616 69.563 64.9228 69.2718 64.8645C68.7281 64.8257 68.2038 64.7674 67.6601 65.0198C67.2329 65.214 66.7475 65.2529 66.2232 65.2529C65.7766 65.2529 65.6407 65.0587 65.6795 64.6315C65.7378 64.4762 65.7766 64.282 65.8349 64.1461C65.9708 63.7965 65.9708 63.4664 65.8737 63.1169C65.6407 62.4956 65.3883 61.913 65.1553 61.2334C64.3786 61.2917 63.5436 61.2917 62.7669 61.3305C62.1455 62.3596 61.6213 63.3694 60.9805 64.282C60.495 65.0198 59.9125 65.6995 59.33 66.3791C59.1941 66.515 58.9999 66.6121 58.9028 66.7674C58.029 67.9713 57.1164 69.1752 56.631 70.6898C56.5339 71.0199 56.4368 71.4082 56.4368 71.7966C56.4368 72.282 56.2814 72.7092 56.1455 73.1558C56.0484 73.4471 55.9902 73.7383 55.9902 74.0296C55.9902 74.6121 55.9902 75.2335 55.9902 75.816C55.9513 76.2432 55.8543 76.6898 55.7572 77.117C55.3688 76.981 55.0193 76.8839 54.6892 76.7286C54.5921 76.6898 54.4368 76.5344 54.3979 76.4373C54.3397 76.2043 54.3397 75.9131 54.3009 75.6801C54.2426 75.3888 54.2038 75.0975 54.1455 74.8063C54.1455 74.6509 54.0484 74.5538 54.1067 74.4179C54.2038 73.9325 54.3009 73.4471 54.5339 73.0005C54.9805 72.282 55.1747 71.4665 55.1747 70.5927C55.1747 70.049 55.1747 69.5247 55.1747 68.981C55.1747 68.3985 55.4077 67.9713 55.8931 67.68C56.1844 67.4859 56.3785 67.1946 56.5727 66.9033C56.6698 66.7092 56.7281 66.5732 56.8251 66.3791C57.5436 65.0587 57.5436 63.6995 57.2135 62.3014C57.0193 61.583 56.7669 60.8451 56.4756 60.1655C56.2426 59.447 56.1455 58.7092 56.0873 57.9907C56.0873 57.7965 56.1455 57.6994 56.2814 57.5635C56.5727 57.3111 56.8251 57.0781 57.0581 56.8257C57.9319 56.1072 58.7475 55.4276 59.6213 54.6897C59.9125 54.4567 60.165 54.1266 60.495 53.8742C61.33 53.1557 62.2038 52.515 63.0193 51.7965C63.5436 51.3499 63.9902 50.8256 64.4756 50.3402C65.0582 49.8159 65.6795 49.2722 66.2621 48.748C66.5145 48.5538 66.7475 48.3596 66.9805 48.1072C66.9417 48.0101 66.8834 47.913 66.7863 47.7771C66.4562 48.0101 66.1261 48.2625 65.7766 48.4955C64.9999 49.1363 64.2815 49.8159 63.6019 50.5344C63.3106 50.8645 62.9611 51.1557 62.5727 51.447C61.5242 52.282 60.4562 53.0975 59.4853 54.0684C58.9999 54.5538 58.4174 54.981 57.8931 55.4276C57.2523 55.9519 56.5727 56.5344 55.9514 57.0781C55.7572 57.214 55.5047 57.4082 55.3106 57.5635C54.495 58.1849 53.6212 58.7674 52.7475 59.3888C52.9416 59.7383 53.1358 60.0684 53.2912 60.3596C53.6212 61.0004 53.9513 61.583 54.2426 62.2043C54.3979 62.5538 54.495 62.8839 54.5339 63.214C54.631 64.1461 54.728 65.0587 54.631 65.9325C54.5339 67.2529 54.2426 68.5538 53.6795 69.7577C53.5242 70.1072 53.33 70.4956 53.2329 70.8839C53.097 71.4082 53.1941 71.9325 53.2912 72.4762C53.33 72.7092 53.33 72.9616 53.2912 73.2529C53.097 72.9034 52.9028 72.515 52.7475 72.1849C52.7086 72.1849 52.7086 72.1849 52.6504 72.2237C52.6504 73.0005 52.7475 73.7772 52.8057 74.5539C52.8445 75.3306 52.9416 76.1072 52.9999 76.8257H52.9416C52.4174 76.3985 51.8348 76.0102 51.3494 75.4859C50.961 75.0393 50.6115 74.5539 50.2814 74.0684C50.1843 73.9713 50.1261 73.7772 50.0873 73.6801C49.6989 72.515 49.6407 71.3694 49.6989 70.1461C49.7377 68.9422 49.9902 67.7771 50.2232 66.6121C50.3203 66.1266 50.2814 65.6995 50.0873 65.214C49.6018 64.049 49.4659 62.8257 49.6601 61.5829C49.8348 60.3596 49.9902 59.1558 50.2232 57.9519C50.4174 57.0781 50.6115 56.2043 50.9999 55.3305C51.4465 54.3985 51.7766 53.447 52.2232 52.515C52.6115 51.6994 53.1358 50.8645 53.6212 50.0878C53.8154 49.7577 54.0484 49.4664 54.2426 49.1363C54.8251 48.1072 55.6601 47.2917 56.3785 46.3596C56.5339 46.1654 56.7281 46.0295 56.9222 45.9324C57.8349 45.214 58.8057 44.4761 59.7183 43.7965C59.8737 43.6994 59.9708 43.6023 60.1067 43.4664C60.0679 43.3693 60.0096 43.214 59.9708 43.1169C59.4853 42.1072 58.9416 41.0975 58.4562 40.0683C58.262 39.68 58.1261 39.2528 58.029 38.8062C57.6407 37.5441 57.5048 36.2431 57.6407 34.9421C57.796 33.7188 58.1844 32.612 58.9028 31.6023C59.3883 30.9227 60.1067 30.5732 60.8446 30.1848C61.1358 30.0489 61.3688 29.8547 61.6601 29.7576C62.5727 29.4081 63.4465 28.8256 64.4756 28.9809C64.9028 29.0198 65.3494 29.1751 65.8349 29.2722C66.9805 26.4567 68.1455 23.6605 69.3106 20.7867H70.0873C69.9514 21.2722 69.796 21.7188 69.6601 22.146C69.3689 23.1751 69.0193 24.1848 68.7281 25.1557C68.4368 26.0683 68.1456 27.0004 67.9125 27.9712C67.7184 28.6508 67.4659 29.3693 67.2718 30.0489C67.1747 30.4373 67.1747 30.4761 67.5242 30.7285C68.0485 31.1557 68.5339 31.6023 69.0776 32.0295C69.3106 32.2237 69.6019 32.4178 69.8543 32.6703C70.1456 32.8644 70.3786 33.0975 70.6698 33.2916C70.9611 33.4858 71.2523 33.5829 71.5824 33.7188C72.0291 33.913 72.165 34.4567 71.8349 34.6897C71.3494 35.078 71.0582 35.6217 70.7669 36.146C70.631 36.4373 70.3786 36.5926 70.0485 36.5344C69.7572 36.4955 69.5048 36.4373 69.2718 36.3402C69.0193 36.2431 68.7863 36.1072 68.5922 36.0101C68.1456 35.8159 67.7184 35.6606 67.2718 35.4664C66.8834 35.2722 66.4951 35.2722 66.0679 35.2722C65.9708 35.2722 65.8349 35.3693 65.7766 35.4664C65.6407 35.8159 65.5436 36.146 65.3883 36.5344C65.6407 36.6314 65.8737 36.7868 66.1261 36.8256C66.9805 37.1169 67.8543 37.4664 68.631 37.9907C69.2135 38.379 69.699 38.8645 70.0873 39.447C70.2426 39.6412 70.3397 39.8353 70.4757 40.0295C70.6698 40.3596 70.9611 40.612 71.2912 40.9033C71.9708 41.4276 72.5533 42.0489 73.097 42.6897C73.2912 42.8839 73.33 43.214 73.3883 43.5052C73.4271 44.0489 73.4271 44.5732 73.3883 45.1169C73.33 45.5441 73.4854 45.7383 73.8155 45.9324C73.9126 45.9907 74.0096 46.0295 74.165 46.0684C74.5922 45.3499 75.0776 44.6703 75.2718 43.7965C75.4077 43.0198 75.7572 42.3014 75.9514 41.5247C76.1456 40.748 76.3397 39.9324 76.4757 39.0975C76.631 38.2819 77.0582 37.6994 77.7961 37.3693C77.9902 37.2722 78.1262 37.1169 78.1844 36.8839C78.3203 36.2043 78.5145 35.5635 78.6698 34.8839C78.7087 34.6509 78.7087 34.4567 78.5145 34.3013C78.2232 34.0101 77.932 33.7188 77.6407 33.4275C77.0582 32.9033 76.6698 32.2237 76.4757 31.447C76.2815 30.7674 75.8931 30.2819 75.4077 29.8547C74.7475 29.2139 73.9708 28.6508 73.2329 28.1072C73.0388 27.9712 72.8446 27.7771 72.7087 27.6217C72.0679 26.9421 71.3883 26.2237 70.7669 25.544C70.6698 25.447 70.631 25.3887 70.4757 25.2916C70.1456 25.9324 69.8543 26.5149 69.563 27.1363C69.5048 27.2334 69.4659 27.3305 69.4077 27.4275C69.2718 27.68 69.2718 27.68 68.9805 27.5246C69.6601 25.2916 70.3397 23.078 70.9999 20.7867C71.6795 20.7479 72.4174 20.6508 73.1358 20.5926C75.2718 23.7576 77.4077 26.9033 79.5242 30.0489C79.7184 29.7576 79.7184 29.5052 79.5825 29.2139C79.1553 28.2625 78.5728 27.3887 77.9902 26.5149C77.1164 25.2528 76.1844 23.9518 75.3689 22.6314C74.9223 21.9518 74.6893 21.1751 74.3592 20.4178C75.2135 20.1654 75.9902 19.9324 76.864 19.6799C76.9223 19.777 77.0194 19.8741 77.0582 20.0295C77.6407 21.3693 78.2232 22.7868 78.864 24.146C79.233 25.0003 79.6213 25.8741 79.8737 26.8062C79.9126 27.0392 79.9126 27.2916 79.9708 27.5246C79.9708 27.7771 79.9708 27.9712 79.9708 28.2625C80.0679 28.2042 80.1067 28.1654 80.1067 28.1654C80.4563 26.612 80.8834 25.0974 81.1747 23.5635C81.466 22.2042 81.8155 20.8838 82.4951 19.6799C82.5922 19.4858 82.5922 19.3499 82.4951 19.1945C82.2427 18.7673 82.0485 18.379 81.8155 17.9324C81.7184 17.7964 81.5631 17.6411 81.3689 17.4469C81.7184 17.2139 82.1067 16.9615 82.4368 16.7285C82.631 16.8644 82.7864 16.9615 82.9223 17.1168C83.2135 17.4469 83.5631 17.7382 83.8349 18.0877C84.0873 18.379 84.1262 18.6702 84.1844 19.0586C84.1844 19.2916 84.2233 19.544 84.3203 19.777C84.3786 20.0295 84.5145 20.1266 84.7669 20.0683C85 20.0683 85.097 19.8741 85.0582 19.6799C85 18.9032 85.3883 18.3207 85.8737 17.8353C86.165 17.544 86.3592 17.2139 86.6116 16.9227C86.7475 16.7673 86.9029 16.5731 87.0388 16.379C87.1941 16.5731 87.3301 16.7285 87.4854 16.8256C87.8543 17.2139 88.2427 17.6411 88.631 18.0295C88.7281 18.1265 88.9805 18.1848 89.1165 18.1848C89.699 18.0877 90.1456 17.8353 90.5339 17.4081C90.7281 17.1557 90.864 16.9227 90.8252 16.6314C90.767 16.1071 90.9611 15.6217 91.2136 15.1751C91.5048 14.5926 92.0873 14.4955 92.6116 14.3984C92.6505 14.3984 92.6505 14.3984 92.7087 14.3984C93.8738 14.1654 94.398 14.9809 94.9417 15.8159C95.2718 16.3401 95.5631 16.9227 95.9126 17.4469C96.0097 17.6411 96.2427 17.7964 96.398 17.9324C96.6699 18.3207 96.9223 18.6702 97.1553 19.0586C97.8349 20.0683 98.6116 20.9421 99.4466 21.8159C100.165 22.5926 100.786 23.4081 101.524 24.1848C102.01 24.7285 102.495 25.1945 103.175 25.544C103.66 25.777 104.049 26.1266 104.34 26.5537C104.379 26.612 104.379 26.6508 104.437 26.6508C104.961 27.0392 105.35 27.5829 105.738 28.1072C106.165 28.6508 106.612 29.2139 107 29.7965C107.136 29.9907 107.233 30.1848 107.388 30.4761C107.039 30.379 106.845 30.5732 106.65 30.7285C105.583 31.5441 104.573 32.4178 103.408 33.0975C102.534 33.6217 101.718 34.2625 100.845 34.845C100.612 34.981 100.417 35.2334 100.223 35.4664C99.2913 36.5344 98.2233 37.5635 97.2136 38.5149C97.2136 38.4761 97.2136 38.4179 97.1553 38.4179Z" fill="white"/>
<path fill-rule="evenodd" clip-rule="evenodd" d="M123.563 28.8836C123.311 28.8836 123.175 29.1166 123.175 29.369C123.175 29.602 123.369 29.7574 123.602 29.7574C123.854 29.7574 124.049 29.5632 124.049 29.3108C124.049 29.1166 123.796 28.8836 123.563 28.8836ZM126.748 28.8447C126.845 28.9807 126.903 29.0195 126.942 29.0777C127.427 29.6991 127.388 30.1845 126.903 30.7282C126.845 30.7671 126.806 30.8253 126.709 30.9224C126.612 31.0583 126.573 31.2137 126.67 31.3496C126.748 31.5049 126.942 31.5049 127.097 31.4467C127.524 31.3108 127.816 30.7671 127.777 30.3399C127.719 30.0875 127.719 29.7962 127.68 29.5632C127.621 29.2137 127.33 28.7865 127 28.7476C127 28.7476 126.903 28.8447 126.748 28.8447ZM123.408 37.6991C123.408 37.8933 123.408 37.9904 123.408 38.0875C123.369 38.7671 123.311 39.3884 123.311 40.0681C123.311 40.1651 123.272 40.3205 123.272 40.4176C123.214 40.6506 123.175 40.9418 123.214 41.1943C123.214 41.7185 123.505 41.8545 123.99 41.7185C124.67 41.5244 125.408 41.2914 126.126 41.0972C126.223 41.0389 126.379 41.0972 126.476 41.0972C126.573 41.3885 126.67 41.6215 126.709 41.9127C126.806 43.0195 127.291 44.0486 127.68 45.0584C127.777 45.3108 127.913 45.5438 128.301 45.505C128.301 45.0195 128.301 44.5729 128.301 44.1457C128.301 43.8933 128.262 43.6991 128.165 43.4661C127.874 42.6894 127.583 41.9127 127.33 41.136C127.291 40.9418 127.233 40.7088 127.136 40.5147C127.039 40.2622 126.845 40.1651 126.67 40.2234C126.379 40.2622 126.087 40.3205 125.796 40.4176C125.253 40.5535 124.728 40.7088 124.185 40.8448C124.185 40.6117 124.243 40.4564 124.243 40.2622C124.185 39.4467 124.146 38.5729 124.087 37.738C124.087 37.602 123.99 37.4079 123.952 37.3108C123.893 37.2137 123.757 37.1166 123.66 37.1166C123.117 37.0778 122.495 37.5049 122.398 38.0875C122.631 37.9904 122.981 37.835 123.408 37.6991ZM134.321 68.0099C134.456 67.971 134.515 67.9128 134.554 67.9128C134.845 67.6798 135.136 67.3497 135.466 67.1555C136.243 66.6118 136.534 65.8351 136.728 64.9613C137.02 63.7963 136.884 62.5924 136.884 61.4273C136.884 61.2332 136.787 61.039 136.689 60.806C136.301 61.2914 136.01 61.7768 135.621 62.1652C135.233 62.5924 134.845 62.9419 134.456 63.3108C134.126 63.6603 133.971 64.0875 134.029 64.573C134.068 65.0196 134.126 65.4468 134.165 65.8351C134.321 66.573 134.651 67.2526 134.321 68.0099ZM128.748 75.5827C128.689 75.6798 128.651 75.7769 128.651 75.874C128.554 76.2041 128.165 76.4371 127.719 76.3982C127.427 76.34 127.291 76.2041 127.291 75.7186C127.291 75.5827 127.33 75.4274 127.097 75.2914C127.039 75.5244 127 75.7769 126.942 76.0681C126.651 76.0681 126.379 76.0681 126.126 76.0681C126.029 76.0681 125.932 76.0099 125.893 75.9128C125.602 75.6798 125.447 74.9419 125.641 74.5536C125.699 74.4565 125.738 74.4176 125.835 74.3594C125.99 74.3206 126.126 74.2235 126.282 74.2235C126.903 74.2623 127.33 73.9322 127.719 73.5827C128.262 73.1555 128.787 72.7089 129.33 72.2235C129.854 71.7574 130.146 71.1167 130.243 70.4371C129.854 70.3011 129.563 70.4371 129.233 70.4953C128.845 70.5341 128.495 70.6312 128.107 70.6895C127.874 70.7283 127.621 70.8254 127.427 71.0196C127.097 71.3691 126.748 71.6604 126.418 71.9322C125.796 72.5147 125.02 72.9031 124.185 73.0973C123.757 73.1943 123.369 73.2914 122.922 73.3885C122.728 73.4468 122.534 73.4856 122.398 73.1943C122.981 72.1846 123.602 71.1749 124.767 70.6312C125.408 70.34 126.088 70.107 126.748 69.9516C127.291 69.8545 127.816 69.6604 128.359 69.5633C128.942 69.4273 129.524 69.3303 130.107 69.2332C130.437 69.1749 130.592 69.039 130.728 68.7477C131.02 67.8739 130.981 67.0002 130.534 66.1846C130.204 65.505 129.854 64.8254 129.427 64.2429C128.748 63.3302 128.359 62.2623 127.971 61.1943C127.874 60.903 127.874 60.5147 127.874 60.1652C127.816 59.0196 128.01 57.8933 128.301 56.7865C128.398 56.3399 128.359 56.0098 128.107 55.6603C127.874 55.3302 127.68 54.9807 127.427 54.7089C127.136 54.3205 126.806 54.0293 126.418 53.8351C125.117 53.1555 123.854 52.4176 122.534 51.738C121.719 51.3108 120.806 50.9613 119.932 50.5729C119.777 50.7283 119.641 50.9224 119.447 51.0584C118.515 51.8933 117.757 52.806 117.078 53.8351C116.825 54.1652 116.689 54.6118 116.495 54.9807C116.243 55.5632 115.913 55.8545 115.272 55.8545C115.175 55.8545 115.039 55.9128 114.981 55.9516C114.553 56.3011 114.068 56.3399 113.544 56.3011C113.583 56.0098 113.641 55.7186 113.738 55.3691C113.447 55.5632 113.35 55.8545 113.253 56.1069C113.155 56.3982 112.864 56.4953 112.573 56.3982C112.32 56.3399 112.185 56.1069 112.223 55.8157C112.282 55.5244 112.32 55.2331 112.32 54.9419C112.282 54.9419 112.282 54.9419 112.223 54.903C112.126 55.1749 112.029 55.4661 111.932 55.7186C111.311 55.9128 111.117 55.6603 111.155 54.9419C111.253 54.1652 111.835 53.738 112.573 53.8739C113 53.971 113.291 53.7768 113.544 53.4467C114.068 52.7671 114.592 52.0875 115.175 51.4079C115.272 51.3108 115.33 51.2137 115.427 51.1166C115.719 50.8254 116.01 50.5341 116.107 50.1457C116.204 49.8545 116.398 49.6603 116.592 49.4273C117.078 48.7865 117.563 48.1652 118.049 47.5244C118.185 47.3885 118.32 47.1943 118.476 47.0389C119.291 46.3593 119.68 45.4467 119.932 44.4758C119.971 44.2428 120.029 43.9516 120.068 43.6991C120.126 43.4661 120.126 43.2719 120.126 43.0195C119.835 42.9807 119.738 43.0778 119.68 43.3108C119.583 43.9516 119.388 44.4758 119 44.9613C118.767 45.2525 118.515 45.505 118.282 45.738C117.757 46.3205 117.214 46.903 116.728 47.5244C116.398 48.0098 115.952 48.1652 115.369 48.1652C114.786 48.1652 114.165 48.2622 113.583 48.3011C113.35 48.3593 113.155 48.3982 112.903 48.4953C112.476 48.6506 112.223 48.5535 112.126 48.1069C112.029 47.8156 112.029 47.5244 111.99 47.2331C111.99 46.6118 111.99 45.9904 111.99 45.3496C111.932 44.7283 111.835 44.1457 111.796 43.5632C111.738 43.369 111.699 43.1166 111.699 42.9224C111.641 42.0098 111.253 41.136 111.058 40.2622C110.961 39.835 110.631 39.5438 110.243 39.3496C109.796 39.1554 109.466 38.903 109.272 38.4758C109.233 38.4176 109.136 38.3787 109.039 38.3205C108.456 37.9321 108.204 37.1748 108.592 36.4952C108.204 36.1457 108.068 35.7574 108.262 35.2331C108.456 34.7865 108.748 34.4564 109.272 34.5535C109.33 34.4952 109.369 34.4952 109.369 34.4564C109.563 33.8156 110.087 33.7185 110.534 34.1069C111.505 34.9807 112.515 35.7574 113.194 36.9224C113.816 37.9321 114.204 39.0583 114.456 40.2234C114.553 40.7088 114.748 41.136 114.942 41.5826C114.981 41.4273 114.981 41.2914 115.039 41.136C115.078 40.7477 115.136 40.3593 115.175 39.971C115.33 39.0001 115.816 38.2234 116.592 37.6991C117.369 37.1166 118.223 36.5923 119 36.0486C119.097 35.9515 119.253 35.9127 119.388 35.8156C119.155 35.6603 118.961 35.5632 118.767 35.4273C118.573 35.2719 118.515 35.136 118.573 34.8836C118.612 34.6506 118.806 34.6506 119 34.6506C119.835 34.5923 120.651 34.5923 121.486 34.7865C122.437 35.0389 122.922 34.7865 123.408 33.9127C123.505 33.7185 123.66 33.5438 123.66 33.3496C123.796 32.6117 123.214 31.9321 122.437 31.9321C121.194 31.9321 119.971 31.9904 118.709 31.9904C118.32 31.9904 117.932 31.9321 117.505 31.8933C117.369 31.7379 117.272 31.5049 117.369 31.2525C117.408 31.0583 117.408 30.8642 117.408 30.67C117.408 30.3399 117.505 30.2428 117.796 30.2428C118.864 30.2428 119.641 29.6991 120.418 29.0777C121.039 28.5923 121.719 28.204 122.437 27.9127C122.689 27.8156 122.981 27.7185 123.214 27.5826C123.369 27.4855 123.563 27.3884 123.66 27.2331C123.796 27.0389 123.952 27.0001 124.146 27.0001C124.961 26.903 125.738 27.0972 126.515 27.136C127.427 27.2331 128.262 27.4273 129.039 27.9709C129.466 28.2622 130.01 28.3981 130.437 28.6894C131.311 29.2331 132.029 29.8933 132.476 30.8642C133.194 32.5146 133.486 34.2622 133.35 36.1069C133.155 37.9321 132.806 39.738 132.612 41.5244C132.573 41.9127 132.418 42.3011 132.379 42.6894C132.321 42.8253 132.321 42.9807 132.282 43.1749C132.903 43.2137 133.486 43.2137 134.068 43.2719C135.175 43.3108 136.243 43.4079 137.272 43.8933C137.311 43.9516 137.408 43.9516 137.505 43.9516C137.602 43.7962 137.66 43.6603 137.757 43.4661C138.243 42.3011 138.728 41.136 139.194 39.971C139.388 39.4855 139.641 38.9613 139.932 38.5147C140.165 38.1846 140.456 37.8545 140.806 37.602C141.68 36.8836 142.456 36.0486 143.136 35.136C143.466 34.6894 143.893 34.5535 144.379 34.3593C144.243 34.7865 144.049 35.136 143.796 35.4661C143.233 36.2428 142.592 37.0195 141.971 37.7962C141.622 38.1846 141.291 38.5729 141 39.0583C140.806 39.3496 140.651 39.738 140.651 40.1263C140.709 40.3593 140.651 40.6506 140.651 40.903C140.651 41.8739 140.554 42.7865 140.903 43.7962C140.709 43.8545 140.612 43.8933 140.456 43.8933C139.388 44.1457 138.379 44.3399 137.311 44.6312C136.243 44.9224 135.175 45.2525 134.068 45.6021C133.874 45.6409 133.641 45.6991 133.388 45.738C132.961 45.8933 132.573 45.9321 132.282 45.505C132.223 45.4467 132.185 45.4467 132.126 45.4079C132.029 45.505 131.99 45.6021 131.835 45.6991C132.029 45.9321 132.223 46.1263 132.476 46.3787C132.903 46.8448 133.35 47.2914 133.738 47.7768C134.068 48.204 134.359 48.7477 134.651 49.2331C135.175 50.1069 135.66 50.9613 136.146 51.7962C136.243 51.9904 136.398 52.1263 136.495 52.3205C136.787 52.8642 137.02 53.3885 137.272 53.971C137.563 54.6118 137.796 55.272 138.088 55.9128C138.476 56.7865 138.573 57.6603 138.631 58.6312C138.631 60.0293 138.728 61.3885 138.728 62.7866C138.728 63.2332 138.728 63.6992 138.631 64.0875C138.34 65.1167 137.893 66.0875 137.272 66.9613C136.689 67.738 136.049 68.4565 135.369 69.1361C135.136 69.4273 134.748 69.6215 134.418 69.8157C134.068 70.0099 133.777 70.2429 133.777 70.6895C133.738 71.5633 133.35 72.2429 132.961 72.9613C132.864 73.1555 132.709 73.3497 132.67 73.5827C132.476 74.5147 131.738 75.0002 131.058 75.5244C130.534 75.5244 130.204 75.9128 129.757 76.107C129.369 76.3011 129.039 76.107 128.748 75.5827Z" fill="white"/>
<path fill-rule="evenodd" clip-rule="evenodd" d="M120.068 96.2624C119.874 96.3595 119.68 96.4566 119.447 96.5537C119.194 97.6216 118.961 98.7284 118.67 99.8352C118.418 99.8352 118.185 99.8352 117.854 99.8935C117.99 98.8255 118.126 97.7576 118.282 96.6508C117.757 97.0391 117.272 97.175 116.728 96.7478C116.437 97.7964 116.301 98.8255 116.204 99.8352C115.078 100.126 112.126 99.2527 110.185 98.0488C108.845 98.9226 107.485 99.7964 106.165 100.67C106.068 100.612 106.029 100.612 105.971 100.573C105.485 100.088 104.922 99.7964 104.379 99.4469C103.699 99.0197 103.117 99.0197 102.398 99.2139C101.369 99.5051 100.359 99.7964 99.5437 100.515C99.4854 100.573 99.3884 100.612 99.2524 100.67C99 100.321 98.9612 99.8352 98.5146 99.6411C98.1262 99.4469 97.7379 99.4469 97.3107 99.544C97.1553 99.2139 97.0583 98.8255 96.9223 98.476C96.9612 98.476 96.9612 98.4372 97.0194 98.4372C97.1553 98.5731 97.3107 98.6702 97.4466 98.8255C97.8932 98.5731 98.2816 98.3789 98.7087 98.1459C99.2913 97.7964 99.835 97.4275 100.417 97.0779C101.272 96.5537 102.204 96.1653 103.214 95.9711C103.699 95.8741 104.184 95.777 104.67 95.6216C105.544 95.3886 106.417 95.3886 107.291 95.5828C107.485 95.6216 107.68 95.6216 107.971 95.7187C107.718 95.3304 107.524 95.0391 107.33 94.8061C107.291 94.709 107.097 94.6508 107 94.6508C106.612 94.6508 106.223 94.6508 105.874 94.709C105.019 94.8449 104.146 95.0003 103.214 95.1362C102.243 95.2915 101.33 95.6799 100.456 96.1071C99.3495 96.6508 98.2233 97.1362 97.1165 97.6605C96.767 97.4275 96.4757 97.2333 96.1456 96.9809C96.6699 96.5537 97.1553 96.1071 97.6408 95.6799C97.6408 95.6216 97.6019 95.6216 97.6019 95.5828C97.4466 95.6216 97.2524 95.6216 97.1165 95.6799C96.3981 95.8158 95.7184 96.01 94.9806 96.1653C94.9417 96.1653 94.8447 96.2042 94.7864 96.1653C94.2621 96.01 93.7767 95.8158 93.2913 95.6216C93.233 95.6216 93.233 95.5245 93.1942 95.4275C95.1748 94.7478 97.1165 94.2236 99.0583 93.5828C100.981 92.9614 102.981 92.4372 105.097 92.0876C104.961 91.9906 104.864 91.8935 104.767 91.8546C103.757 91.2139 102.689 90.5925 101.66 90.01C101.078 89.6605 100.417 89.4275 99.7767 89.1362C99.4466 88.9808 99.1553 88.8061 98.8058 88.6507C98.8641 88.6119 98.8641 88.5537 98.8641 88.5537C99.8738 88.5148 100.845 88.4566 101.854 88.7478C102.728 88.9808 103.66 89.0391 104.534 89.175C105.544 89.3692 106.612 89.4274 107.583 89.8546C108.301 90.1459 109.039 90.3983 109.757 90.6313C110.34 90.8255 110.825 91.2139 111.311 91.5634C111.602 91.7576 111.932 91.9906 112.185 92.243C113.058 93.0197 113.68 94.0294 114.165 95.0974C114.359 95.5828 114.592 96.01 114.786 96.4954C114.981 96.942 115.136 97.3692 115.175 97.8546C115.175 98.1847 115.233 98.1847 115.563 98.6313C115.621 98.0877 115.718 97.5634 115.757 97.0391C115.816 96.6508 115.854 96.2042 115.951 95.8158C116.01 95.6216 115.951 95.4275 115.816 95.2915C115.718 95.1944 115.66 95.0391 115.563 94.942C115.233 94.5148 114.942 94.0294 114.689 93.544C114.359 92.6702 114.01 91.8546 113.777 90.9226C113.544 90.0488 112.961 89.3692 112.126 89.0391C110.961 88.5537 109.796 88.0682 108.651 87.5828C107.913 87.2915 107.291 86.8643 106.651 86.3206C106.029 85.7964 105.35 85.3498 104.922 84.6313C104.864 84.5342 104.67 84.4954 104.534 84.4371C103.951 84.3401 103.408 84.243 102.825 84.2041C103.272 83.5245 103.951 83.175 104.67 82.8837C104.825 82.8449 105.019 82.8449 105.194 82.8449C105.388 82.8449 105.583 82.8449 105.777 82.7867C106.068 82.6507 106.32 82.7478 106.553 82.8837C106.903 83.0779 107.194 83.2333 107.583 83.3303C108.359 83.5634 109.078 83.8546 109.796 84.1459C109.951 84.2041 110.087 84.3012 110.243 84.3983C110.728 84.6313 111.214 84.8643 111.699 85.1556C112.087 85.3498 112.418 85.6022 112.767 85.7964C113.388 86.2236 113.971 86.709 114.398 87.2915C114.495 87.4469 114.592 87.641 114.651 87.8352C115.136 89.175 115.854 90.3401 116.981 91.2721C117.408 91.6605 117.893 91.9906 118.223 92.4372C118.282 92.5342 118.379 92.6313 118.418 92.7284C118.961 93.8741 119.485 95.0003 120.029 96.1653C120.126 96.1071 120.068 96.1653 120.068 96.2624Z" fill="white"/>
<path fill-rule="evenodd" clip-rule="evenodd" d="M131.738 22.534C132.573 23.1748 133.35 23.7573 134.224 24.437C133.932 23.5632 133.738 22.7282 133.389 21.9127C132.864 22.1069 132.321 22.301 131.738 22.534ZM110.437 19.4855C110.631 19.5826 110.728 19.6408 110.825 19.6797C111.117 19.7768 111.408 19.8738 111.699 20.0292C112.321 20.3204 112.864 20.6894 113.291 21.2719C113.874 22.0486 114.262 22.9806 115.039 23.5632C115.33 23.7962 115.563 23.9904 115.952 24.1457C115.369 23.2719 114.748 22.437 114.107 21.6214C113.544 20.7865 112.864 20.068 112.126 19.3496C111.932 19.1554 111.738 19.0971 111.447 19.1942C111.156 19.2913 110.864 19.3884 110.437 19.4855ZM135.427 28.2622C135.272 27.7185 135.097 27.2331 135 26.7476C134.942 26.5146 134.806 26.4175 134.612 26.3205C132.767 25.3884 130.826 24.7088 128.981 23.9515C128.748 23.8544 128.554 23.8544 128.359 23.9515C126.573 24.6311 124.767 25.2913 122.981 26.0292C122.107 26.4175 121.292 26.903 120.418 27.3302C120.126 27.4855 120.029 27.7768 120.029 28.0098C119.971 28.301 119.835 28.4564 119.544 28.5923C119.194 28.7477 118.806 28.9418 118.476 29.1166C118.282 29.2137 118.126 29.1748 117.952 29.0195C117.311 28.5535 116.69 28.1069 116.01 27.6797C115.758 27.5243 115.525 27.3302 115.272 27.1942C115.136 27.0972 114.981 27.0389 114.845 26.9418C114.69 27.3302 114.554 27.6797 114.398 28.0098C114.359 28.1651 114.262 28.2622 114.107 28.3593C113.777 28.5535 113.447 28.6894 113.058 28.8836C112.67 28.6506 112.418 28.301 112.282 27.9127C112.224 27.7768 112.224 27.5826 112.321 27.4273C112.864 26.5146 112.67 25.6408 112.418 24.7282C112.379 24.5729 112.282 24.437 112.185 24.3399C111.408 23.5049 110.534 22.7865 109.602 22.1457C109.466 22.0486 109.33 21.9515 109.175 21.8156C108.69 21.2719 108.165 20.7865 107.427 20.3593C107.913 20.2622 108.359 20.2234 108.748 20.068C109.175 19.9709 109.563 19.835 109.991 19.6408C110.825 19.2525 111.641 18.8059 112.418 18.3787C112.515 18.3204 112.612 18.2816 112.767 18.2234C113 18.0874 113.253 18.1263 113.486 18.2816C114.69 18.9612 115.952 19.4855 117.272 19.9321C118.903 20.4564 120.554 20.7476 122.262 20.8447C122.34 20.8447 122.495 20.8447 122.69 20.8836C122.01 22.3399 121 23.5632 120.515 25.0972C120.903 24.6311 121.292 24.1457 121.719 23.6991C122.204 23.2719 122.69 22.8253 123.214 22.437C123.991 21.9127 124.767 21.369 125.602 20.8447C125.796 20.6894 125.991 20.5923 126.224 20.5535C128.107 20.0292 129.719 19.0001 130.923 17.4078C130.961 17.3496 131.02 17.3107 131.059 17.2136C131.214 17.4078 131.311 17.5049 131.408 17.6408C131.447 17.7379 131.505 17.835 131.544 17.9321C131.311 18.1263 131.059 18.2816 130.864 18.5146C130.631 18.767 130.495 19.0583 130.301 19.2913C130.146 19.4855 130.01 19.7379 129.816 19.9321C129.758 20.0292 129.719 20.068 129.66 20.1651C130.592 19.9321 131.447 19.4855 132.321 19.0583C132.418 19.1942 132.515 19.2525 132.612 19.3884C133.292 20.4175 134.029 21.369 134.709 22.3981C135.097 22.9224 135.194 23.5632 135.369 24.1845C135.466 24.5729 135.563 24.9612 135.719 25.4467C135.952 25.1942 136.204 25.0583 136.437 24.8641C136.593 25.0972 136.787 25.2913 136.981 25.5826C136.593 25.7768 136.301 25.9709 135.952 26.1651C136.049 27.5826 136.69 28.7865 137.078 30.0486C136.398 30.4758 135.719 30.9224 135.039 31.3108C135 31.3108 134.942 31.2525 134.942 31.2525C134.709 30.8253 134.126 30.4758 134.515 29.8544C134.806 29.4078 134.942 28.8447 135.427 28.5535C135.233 28.3981 135.33 28.301 135.427 28.2622Z" fill="white"/>
<path fill-rule="evenodd" clip-rule="evenodd" d="M67.0776 81.9711C67.1747 81.8157 67.2329 81.7186 67.2718 81.5827C68.0485 80.5147 68.9805 79.6021 70.0485 78.8254C70.3397 78.6312 70.5727 78.3788 70.864 78.1846C71.2523 77.8934 71.6795 77.6021 72.1261 77.3108C72.4562 77.1167 72.8057 77.1167 73.1358 77.4079C73.33 77.6021 73.5242 77.7574 73.7184 77.9516C74.165 78.4371 74.3591 78.4371 74.7863 77.9516C74.8446 77.8934 74.8834 77.8934 74.8834 77.8545C75.1747 77.8934 75.4077 78.0875 75.6019 78.34C76.0485 78.8254 76.4757 79.3109 76.864 79.8351C76.9611 79.9905 77.0194 80.1846 77.1164 80.3206C77.1553 80.4565 77.2524 80.6118 77.3494 80.7477C77.6407 81.0973 77.9902 81.0002 78.1844 80.6507V80.6118C78.4757 79.9322 78.9999 79.5439 79.7184 79.4079C80.6504 79.2138 81.563 79.1555 82.4951 79.4468C83.3106 79.6992 84.1262 79.9905 84.9611 80.2817C85 80.2817 85.0582 80.3206 85.2524 80.4176C84.3786 80.6118 83.6019 80.7477 82.8252 80.9031C81.8543 81.039 80.8834 81.3303 80.0096 81.8157C79.2524 82.2623 78.3786 82.5536 77.5436 82.8837C76.5339 83.272 75.5048 83.7186 74.4562 83.9516C74.2038 84.0099 73.9708 84.0099 73.7184 84.0487C73.5242 84.107 73.3883 84.107 73.2329 84.2041C72.8446 84.3982 72.5145 84.5924 72.1261 84.7672C71.9708 84.6313 71.8349 84.5342 71.7378 84.3982C71.4465 84.107 71.0582 84.0099 70.7281 84.2041C70.4756 84.34 70.2815 84.34 70.0485 84.2041C69.796 84.107 69.6601 84.2041 69.4659 84.3012C68.3397 85.0196 67.8543 86.1264 67.33 87.2915C67.2329 87.5439 67.0776 87.7769 66.7863 87.7769C66.2232 87.7381 65.7378 87.9322 65.2523 88.2235C65.1552 88.2623 65.0582 88.3206 64.9028 88.3594C64.7086 88.1652 64.5145 87.9322 64.2815 87.6798H63.7378V87.0973C63.5048 87.2915 63.3106 87.4468 63.1164 87.5827C63.0582 87.5827 63.0193 87.5827 63.0193 87.5439C62.3397 86.9031 61.6213 86.3206 60.9416 85.6992C60.6504 85.408 60.262 85.3109 59.8737 85.2526C59.7766 85.2526 59.6213 85.2526 59.5242 85.2526C59.33 84.6313 59.1358 82.2623 59.2329 81.7186C59.4853 81.8157 59.7183 81.9128 60.0096 82.0099C60.262 82.107 60.398 82.0681 60.4562 81.8157C60.6504 81.1944 61.1358 80.9419 61.7572 80.8448C62.631 80.7089 63.3494 80.9419 64.0873 81.2914C64.2232 81.3303 64.4174 81.4856 64.5727 81.4856C64.9999 81.5245 65.3494 81.7769 65.6407 82.0099C66.2232 82.4953 66.7863 82.8837 67.5242 83.0779C67.9514 83.1749 68.398 83.4662 68.8252 83.6604C68.9222 83.7186 69.0776 83.7575 69.2135 83.7575C69.4077 83.7575 69.563 83.6215 69.6019 83.4274C69.6019 83.272 69.6019 83.0779 69.5048 82.9808C69.3688 82.8448 69.1164 82.7477 68.9222 82.6507C68.398 82.4565 67.8543 82.3011 67.3688 82.107C67.1747 82.0681 67.1747 82.0099 67.0776 81.9711Z" fill="white"/>
<path fill-rule="evenodd" clip-rule="evenodd" d="M123.466 53.0584C124.573 53.4856 125.602 53.8351 126.515 54.4565C126.748 54.6507 127 54.8837 127.194 55.1361C127.427 55.4274 127.621 55.7186 127.816 56.0099C127.874 56.107 127.913 56.2429 127.913 56.34C127.816 56.9225 127.719 57.5633 127.583 58.1458C127.291 59.3886 127.427 60.6119 127.874 61.7769C127.913 61.9128 128.01 62.0099 128.068 62.1653C128.165 62.3983 128.262 62.6507 128.359 62.942C127.719 63.1361 127.194 62.9808 126.67 62.8449C126.67 63.2721 126.612 63.6604 126.67 64.0488C126.709 64.7284 126.67 65.3109 126.282 65.8934C125.99 66.3206 125.796 66.8643 125.544 67.2915C125.35 67.6798 125.02 67.9711 124.534 67.9711C124.34 67.9711 124.146 67.9128 124.088 67.7187C123.757 67.0002 123.117 66.6119 122.592 66.1264C121.874 65.5439 121.039 65.0585 120.165 64.7672C119.68 64.573 119.253 64.34 118.767 64.0876C118.126 63.7963 117.466 63.5051 116.787 63.2332C116.631 63.1361 116.437 63.0779 116.34 62.942C116.146 62.7478 116.107 62.4565 116.243 62.2624C116.495 62.0099 116.437 61.7187 116.437 61.4274C116.437 61.2332 116.437 61.0002 116.495 60.806C116.631 60.3594 116.922 60.2623 117.311 60.5536C117.369 60.6119 117.408 60.6119 117.466 60.6507C117.505 60.5536 117.602 60.4565 117.66 60.4177C117.893 60.0682 118.223 59.9322 118.612 60.0293C119 60.1264 119.35 60.2623 119.447 60.7478C119.544 61.2332 119.835 61.4856 120.262 61.6798C121.233 62.1653 122.204 62.5924 123.078 63.2721C123.214 63.4274 123.408 63.5633 123.602 63.6604C123.369 63.2721 123.117 62.8837 122.728 62.5924C122.243 62.2041 121.777 61.7769 121.291 61.3303C121 61.0973 120.806 60.7478 120.709 60.3594C120.612 59.9711 120.515 59.641 120.515 59.2526C120.515 58.1847 120.515 57.0779 120.806 56.0099C121.097 54.9808 121.719 54.2623 122.592 53.7381C122.728 53.641 122.825 53.5439 122.922 53.4468C123.175 53.3885 123.272 53.2526 123.466 53.0584Z" fill="white"/>
<path fill-rule="evenodd" clip-rule="evenodd" d="M121.583 79.4079C121.583 79.738 121.874 80.2234 122.165 80.3788C122.34 80.4759 122.495 80.4759 122.631 80.3205C122.787 80.1846 122.787 79.9904 122.69 79.7963C122.593 79.6409 122.534 79.4467 122.495 79.3108C122.398 79.0196 122.204 78.8642 121.913 78.8642C121.719 78.8642 121.583 79.0584 121.583 79.4079ZM120.845 74.7089C121.233 74.5535 121.583 74.4176 121.971 74.2623C122.204 74.7477 122.437 75.2331 122.69 75.7768C122.923 75.7186 123.117 75.6797 123.369 75.6797C123.699 75.6215 123.894 75.7186 123.952 76.0681C124.049 76.6312 124.34 77.0778 124.728 77.505C124.923 77.7574 125.02 78.0487 125.156 78.2817C125.253 78.437 125.311 78.6312 125.408 78.7671C125.835 78.437 126.282 78.1458 126.651 77.7963C127.292 77.2137 128.068 77.272 128.845 77.3691C128.884 77.3691 128.981 77.4079 129.039 77.4079C129.563 77.5632 130.107 77.5632 130.437 77.0196C130.593 76.8254 130.787 76.6895 130.981 76.4953C131.311 76.204 131.699 76.1458 132.127 76.204C132.379 76.2429 132.612 76.3399 132.709 76.6895C132.767 76.8254 132.864 76.9225 132.961 77.1166C133.35 76.5341 133.738 76.0487 134.068 75.5827C134.36 77.7963 134.36 79.9904 134.262 82.204C134.165 82.204 134.127 82.204 134.068 82.204C133.35 81.7186 132.573 81.971 131.796 82.0681C131.311 82.1652 130.826 82.3594 130.34 82.4953C129.622 82.7866 128.845 83.0778 128.068 83.3691C128.01 83.272 127.971 83.1749 127.913 83.1361C127.816 83.039 127.777 82.8448 127.622 82.7866C127.136 82.6506 126.709 82.204 126.127 82.3594C126.088 82.3594 125.991 82.3594 125.932 82.3594C125.311 82.1652 124.67 82.204 123.991 82.3594C124.049 82.1652 124.146 82.0099 124.146 81.8739C124.146 81.7186 124.146 81.5244 124.088 81.3885C123.894 80.9031 123.466 80.8448 123.175 81.2914C122.981 81.5827 122.884 81.9128 122.787 82.204C122.728 82.3011 122.728 82.4565 122.728 82.6506C122.593 82.6895 122.495 82.7477 122.36 82.7866C122.36 82.7477 122.301 82.6895 122.301 82.6506C122.262 82.3982 122.204 82.204 122.107 81.971C121.971 81.7186 121.719 81.6798 121.525 81.9128C121.486 81.971 121.427 82.0099 121.427 82.0681C121.136 82.5924 120.845 83.1749 120.612 83.7186C120.612 83.7186 120.554 83.7186 120.515 83.7186C120.262 82.8837 120.165 82.0681 120.262 81.1943C120.748 81.1361 120.845 80.7477 120.903 80.3788C120.942 80.1264 121 79.9322 121.039 79.6992C121.136 79.3497 121.039 79.2137 120.709 79.3108C120.515 79.3497 120.321 79.505 120.127 79.6409C120.068 79.5438 120.029 79.4467 120.029 79.3108C120.029 78.2817 119.738 77.3108 119.486 76.3399C119.292 75.6215 118.961 74.903 118.67 74.2234C118.476 73.6797 118.282 73.1943 118.088 72.67C118.049 72.4759 117.952 72.3205 117.855 72.1263C117.699 71.7962 117.505 71.505 117.369 71.2137C117.894 70.437 118.767 70.437 119.544 71.2137C119.583 71.0195 119.583 70.8836 119.641 70.6894C119.777 70.1458 120.224 69.8545 120.709 69.9127C120.903 69.9127 121 70.0098 121.039 70.204C121.233 70.7283 121.33 71.3108 121.136 71.8933C120.709 72.7671 120.612 73.6797 120.845 74.7089Z" fill="white"/>
<path fill-rule="evenodd" clip-rule="evenodd" d="M37.1553 42.6894C37.0971 42.1069 37 41.5826 37 41.0389C37 40.5147 37.1553 39.971 37.4466 39.4855C37.835 38.8642 38.2621 38.2816 38.7476 37.738C39.1359 37.369 39.6796 37.4467 39.9126 37.8933C40.1068 38.3787 40.3592 38.8059 40.5534 39.3496C40.7476 39.2914 40.8835 39.2525 41.0777 39.1943C41.3107 39.0972 41.5049 38.9613 41.466 38.67C41.466 38.4758 41.466 38.3205 41.466 38.1263C41.466 37.738 41.5631 37.4467 41.9515 37.3108C42.0486 37.2719 42.0874 37.2137 42.2427 37.1166C42.0874 37.0195 41.9903 36.9224 41.8544 36.8836C41.1165 36.6312 40.9806 36.0486 40.8835 35.369C40.8447 34.7865 40.9806 34.2622 41.3107 33.7768C41.602 33.2913 41.8932 32.8059 42.1845 32.2816C42.4369 32.8059 42.6699 33.3884 42.9612 33.9127C43.3107 34.6506 43.6408 35.3302 43.9903 36.0486C44.1845 36.4952 44.4757 36.8836 44.5728 37.369C44.767 38.0292 45.233 38.4758 45.8156 38.8642C46.2039 39.1554 46.5534 39.4467 46.9418 39.738C47.1359 39.8739 47.233 40.1263 47.2719 40.3593C47.466 41.4273 47.6602 42.5341 47.8156 43.602C47.8544 43.8933 47.8544 44.2428 47.9126 44.5341C48.0097 44.9613 48.1068 45.4079 48.2427 45.8351C48.3981 46.2234 48.6893 46.4564 49.0777 46.5535C49.5049 46.6506 49.9321 46.7088 50.3787 46.7477C50.8641 46.8059 51.3495 46.7477 51.835 46.7477C52.3204 46.7477 52.8447 46.7477 53.3301 46.903C54.0097 47.0389 54.6311 46.9419 55.3107 46.8059C55.369 46.8059 55.4078 46.8059 55.5049 46.7477C55.3107 47.1943 54.9224 47.4273 54.6894 47.8156C54.4369 48.1652 54.2039 48.5535 53.9515 48.9419C53.233 48.8448 52.5146 48.6894 51.7767 48.3982C50.8059 48.0098 49.7961 47.6797 48.7864 47.3302C48.301 47.136 47.7573 46.9419 47.2719 46.7477C46.8447 46.6118 46.4563 46.4176 46.0097 46.2234C45.0971 45.8351 44.2233 45.4467 43.3107 45.0584C42.6699 44.7671 42.0874 44.4758 41.5049 44.1846C41.2719 44.0486 40.9806 43.9516 40.7476 43.7574C40.068 43.2719 39.2913 43.0195 38.5146 42.7283C38.3592 42.6894 38.1651 42.6894 37.9709 42.6312C37.7379 42.6894 37.4854 42.6894 37.1553 42.6894Z" fill="white"/>
<path fill-rule="evenodd" clip-rule="evenodd" d="M146.185 31.6017C146.282 31.6405 146.282 31.6405 146.282 31.6405C146.612 32.5726 147.156 33.3881 147.641 34.2619C147.738 34.3978 147.777 34.5532 147.777 34.7473C147.777 34.9803 147.777 35.2328 147.738 35.4658C147.68 36.1066 147.447 36.592 146.806 36.825C146.709 36.8833 146.612 36.9803 146.418 37.0774C146.573 37.1745 146.67 37.2716 146.767 37.3104C147.097 37.4658 147.195 37.6988 147.195 38.0289C147.195 38.2231 147.195 38.4172 147.195 38.5726C147.195 39.058 147.253 39.0969 147.68 39.2522C147.835 39.291 147.932 39.291 148.127 39.3493C148.36 38.8638 148.554 38.3784 148.748 37.893C148.942 37.4658 149.525 37.3687 149.855 37.6988C150.496 38.3202 150.981 39.058 151.408 39.7765C151.466 39.8736 151.505 39.9706 151.563 40.126C151.855 40.9998 151.796 41.0969 151.02 41.524C150.301 41.9124 149.563 42.1454 148.748 42.2037C148.127 42.2425 147.68 42.592 147.195 42.8833C146.612 43.2716 146.029 43.7571 145.447 44.1454C144.864 44.5338 144.282 44.8639 143.719 45.2522C143.078 45.6988 142.457 46.2231 141.816 46.7085C141.583 46.9027 141.33 47.0969 141.039 47.2328C140.845 47.3299 140.612 47.3881 140.418 47.427C140.068 47.4852 139.68 47.5241 139.35 47.5241C138.185 47.5823 137.02 47.5823 135.855 47.5823C135.369 47.5823 134.942 47.6211 134.457 47.6211C134.418 47.6211 134.321 47.6211 134.262 47.5823C134.029 47.291 133.583 47.0969 133.447 46.6114C133.544 46.5532 133.641 46.5532 133.777 46.5144C134.554 46.2619 135.272 46.0289 136.049 45.8347C136.981 45.5435 137.952 45.3105 138.864 45.058C139.447 44.9221 140.068 44.825 140.651 44.7279C141.33 44.5726 141.719 44.1454 141.525 43.4658C141.292 42.3978 141.33 41.3299 141.33 40.2619C141.33 39.9706 141.389 39.7376 141.583 39.5435C142.068 38.8638 142.554 38.2231 142.981 37.5435C143.272 37.1163 143.563 36.6891 143.855 36.2425C144.185 35.757 144.476 35.2328 144.767 34.7473C144.826 34.6502 144.864 34.4949 144.923 34.359C145.311 33.3881 145.641 32.4755 146.185 31.6017Z" fill="white"/>
<path fill-rule="evenodd" clip-rule="evenodd" d="M130.437 94.0686C128.495 96.5928 125.738 97.855 122.787 98.9229C122.534 98.5346 122.301 98.1462 122.107 97.7579C121.427 96.3987 120.748 95.0006 120.068 93.6414C119.835 93.1559 119.641 92.6705 119.291 92.2822C118.903 91.7967 118.476 91.3113 117.952 90.9812C116.592 90.1074 115.757 88.8453 115.175 87.3501C115.233 86.9035 115.175 86.5152 114.942 86.1851C114.884 86.088 114.981 85.8355 115.078 85.7385C115.233 85.6025 115.369 85.6414 115.524 85.7967C115.719 85.9326 115.952 86.088 116.107 86.2239C116.592 86.8064 117.175 87.1559 117.796 87.5831C117.952 87.6802 118.126 87.8355 118.224 87.9715C118.476 88.2239 118.573 88.2627 118.903 88.0297C119.156 87.8355 119.389 87.6802 119.738 87.5831C120.068 87.486 120.418 87.486 120.748 87.5443C120.903 87.5443 121.097 87.6414 121.194 87.7773C121.486 88.1656 121.816 88.554 122.068 89.0006C122.34 89.4666 122.592 90.0103 122.825 90.5346C122.923 90.7288 122.981 90.9229 123.02 91.0783C123.214 91.5637 123.602 91.6608 123.991 91.3113C124.631 90.7288 125.408 90.5928 126.185 90.5928C126.709 90.5928 127.233 90.6317 127.777 90.6317C128.204 90.6317 128.554 90.787 128.845 91.1754C129.175 91.6025 129.524 92.0491 129.855 92.4763C130.107 92.7676 130.243 93.0589 130.301 93.4472C130.243 93.6414 130.34 93.8356 130.437 94.0686Z" fill="white"/>
<path fill-rule="evenodd" clip-rule="evenodd" d="M112.379 31.0582C112.088 30.8252 111.796 30.5728 111.505 30.3398C110.923 29.8543 110.282 29.3689 109.661 28.9805C109.369 28.7864 109.136 28.5533 108.845 28.2621C108.651 28.0679 108.495 27.8155 108.262 27.6213C107.68 27.0388 107.33 26.3592 106.903 25.6795C106.029 24.3397 105.253 22.8834 104.34 21.5242C103.894 20.8834 103.311 20.3591 102.826 19.7766C102.398 19.2912 101.816 18.9999 101.233 18.7669C100.612 18.4756 99.9324 18.1844 99.2527 17.8349C99.2916 17.7378 99.3887 17.6407 99.4857 17.5436C99.9324 17.0193 100.515 16.5727 101.136 16.2815C101.466 16.1455 101.816 15.9514 102.204 15.8154C102.884 15.563 103.563 15.33 104.243 15.1358C105.253 14.7863 106.262 14.4562 107.194 13.8154C107.233 13.7766 107.33 13.7766 107.389 13.7184C108.165 14.398 108.845 15.0776 109.602 15.7184C110.379 16.3397 111.214 16.864 112.029 17.4465C111.699 17.6019 111.447 17.7378 111.117 17.8931C110.437 18.1844 109.796 18.4756 109.136 18.6698C108.495 18.864 107.816 18.9611 107.194 19.097C106.806 19.1553 106.418 19.1553 106.029 19.1553C105.971 19.1553 105.874 19.1553 105.835 19.1553C105.447 19.3883 105.156 19.1941 104.826 18.9999C104.767 18.9999 104.728 18.9028 104.728 18.9028C104.631 18.9028 104.437 18.9028 104.379 18.9611C104.34 18.9999 104.34 19.2523 104.379 19.2912C104.534 19.4465 104.67 19.5824 104.864 19.6407C105.156 19.7378 105.486 19.7766 105.738 20.0679C105.777 20.1261 105.932 20.165 106.029 20.165C106.612 20.165 107.039 20.4562 107.428 20.7863C107.777 21.0388 108.01 21.3689 108.301 21.6601C108.593 21.9514 108.942 22.3009 109.233 22.5922C109.894 23.2135 110.631 23.7572 111.156 24.5339C111.602 25.1553 111.602 25.8737 111.311 26.6116C111.214 26.9029 111.059 27.1941 111.02 27.4854C110.864 28.1067 111.311 28.5533 111.641 29.0194C111.796 29.2135 111.991 29.4077 112.127 29.5631C112.612 30.1456 112.67 30.3786 112.379 31.0582Z" fill="white"/>
<path fill-rule="evenodd" clip-rule="evenodd" d="M138.573 54.6505C139.059 55.0388 139.447 55.3689 139.835 55.6213C140.321 55.9514 140.845 56.3009 141.389 56.631C141.622 56.7864 141.913 56.8252 142.165 56.7281C143.039 56.4951 143.952 56.3009 144.826 56.0485C145.505 55.8543 146.185 55.6602 146.806 55.233C147.292 54.8835 147.544 54.5534 147.486 53.932C147.389 52.9611 147.194 51.9903 146.476 51.2136C146.709 51.2136 146.864 51.3495 146.961 51.5048C147.35 52.0291 147.738 52.5145 148.029 53.097C148.262 53.4854 148.262 53.932 148.204 54.3592C148.068 55.1359 147.932 55.9126 147.738 56.6893C147.68 56.9223 147.583 57.1747 147.544 57.466C147.35 58.1844 147 58.8252 146.573 59.3883C146.185 59.8738 145.738 60.4175 145.408 60.9029C145.059 61.3301 144.631 61.5243 144.088 61.5825C143.855 61.6213 143.66 61.6796 143.427 61.7767C143.427 61.8155 143.427 61.8738 143.427 61.8738C143.66 61.9126 143.893 61.9126 144.185 61.9709C144.631 62.0097 145.02 62.0679 145.447 62.1068C145.835 62.165 145.835 62.2039 145.796 62.5922C145.738 62.9806 145.796 63.4078 145.738 63.7961C145.699 64.2815 145.602 64.8252 145.447 65.3107C145.311 65.7961 144.864 66.0291 144.437 66.2233C144.243 66.3204 144.049 66.3786 143.855 66.4757C143.952 66.8058 144.049 67.0971 144.146 67.3883C144.146 67.4854 144.185 67.5437 144.185 67.6214C144.088 68.2039 144.146 68.7476 144.243 69.2718C144.243 69.3301 144.185 69.3301 144.185 69.3689C144.146 69.3689 144.088 69.3301 144.049 69.3301C142.981 68.5922 142.01 67.7767 141.097 66.8058C140.942 66.6699 140.903 66.4757 140.806 66.3204C140.515 65.699 140.224 65.1165 139.971 64.4757C139.874 64.2427 139.777 63.9903 139.777 63.699C139.738 63.1747 139.777 62.6505 139.777 62.0679C139.738 60.6505 139.738 59.2912 139.641 57.8932C139.583 57.2136 139.544 56.534 139.214 55.9514C138.864 55.5631 138.767 55.1359 138.573 54.6505Z" fill="white"/>
<path fill-rule="evenodd" clip-rule="evenodd" d="M67.8545 23.2716C67.4661 24.8638 66.5923 26.126 66.0681 27.6211C65.5826 27.6794 65.1554 27.6794 64.67 27.7182C64.1846 27.7765 63.6409 27.8153 63.1554 27.8153C62.6312 27.8153 62.1069 27.8153 61.6215 27.7182C61.136 27.6794 60.6506 27.6211 60.1651 27.7765C59.8739 27.8735 59.5244 27.9124 59.136 28.0095C59.8156 28.4561 60.5535 28.7862 61.2719 29.0774C60.2622 29.757 59.3302 30.3396 58.3205 31.0192C57.0583 30.0871 55.602 29.4658 53.9515 29.3104C54.0098 29.1745 54.0486 29.0774 54.1069 28.9803C55.4661 26.9998 56.8642 25.058 58.2234 23.0774C58.3593 22.8832 58.5147 22.7279 58.7477 22.6891C59.5244 22.4949 60.3011 22.2425 61.136 22.0095C61.2719 21.9512 61.369 21.9512 61.5244 21.9512C62.4758 21.9512 63.4467 21.9512 64.4176 21.9512C64.8642 21.9512 65.2525 22.1065 65.5826 22.2425C66.2622 22.6891 67.0389 22.9803 67.8545 23.2716Z" fill="white"/>
<path fill-rule="evenodd" clip-rule="evenodd" d="M87.6214 85.7376C87.9709 85.1551 88.2428 84.6308 88.5923 84.1066C89.0195 83.4658 89.4661 82.8833 89.9515 82.359C90.1845 82.0677 90.5729 81.8153 90.9224 81.6794C91.4467 81.427 91.8933 81.524 92.2234 82.0095C92.3593 82.2037 92.4564 82.3978 92.5534 82.592C92.6117 82.6891 92.6505 82.7862 92.7088 82.8833C92.9418 82.7473 93.1942 82.5532 93.4272 82.4561C93.5826 82.359 93.7768 82.2619 93.9127 82.2037C94.4564 82.0095 94.8836 82.359 94.9418 82.9415C94.9418 83.1745 94.9418 83.3687 94.9418 83.6211C95.2719 83.66 95.6214 83.66 95.9127 83.7182C96.3399 83.7571 96.437 83.9124 96.437 84.3396C96.437 84.9221 96.3981 85.4464 96.0486 85.9318C95.8156 86.3202 95.6603 86.8056 95.4661 87.2522C95.369 87.4852 95.2331 87.6794 94.9418 87.6794C94.0098 87.6406 93.2913 88.126 92.7088 88.8056C91.9321 89.66 91.3107 90.592 90.6311 91.5046C90.3787 91.7959 90.2428 92.1843 90.0874 92.5726C90.0486 92.6309 89.9903 92.728 89.9515 92.7668C89.8932 92.728 89.7962 92.6697 89.7962 92.6309C89.6602 91.7959 89.4078 91.0192 89.1748 90.2425C88.9224 89.5241 88.6311 88.8444 88.3398 88.126C88.2039 87.7376 87.9709 87.5823 87.5243 87.5823C86.5534 87.5435 85.7767 87.9318 85.0583 88.4561C84.7088 88.7085 84.4758 89.1357 84.1845 89.4658C84.0874 89.6211 83.9903 89.7571 83.8932 89.9512C83.5631 89.6211 83.369 89.3299 83.4078 88.8444C83.5631 87.7376 83.6991 86.6114 83.8544 85.5046C83.8932 85.058 84.0292 84.9609 84.4758 85.0192C84.7088 85.058 84.8059 84.9609 85 84.825C85.2525 84.6308 85.4466 84.3978 85.7379 84.2425C86.3204 83.8541 86.7088 84.0095 86.8447 84.6891C87 85.058 87.2331 85.4075 87.6214 85.7376Z" fill="white"/>
<path fill-rule="evenodd" clip-rule="evenodd" d="M123.757 90.204C123.563 89.8157 123.311 89.3691 123.117 89.0001C122.825 88.3594 122.437 87.7768 121.971 87.2914C121.583 86.8642 121.136 86.6118 120.515 86.7089C120.359 86.7089 120.223 86.7089 120.029 86.7089C119.971 86.1264 119.971 85.6409 120.515 85.3108C120.709 85.2137 120.845 85.0196 120.942 84.8642C121.486 84.0487 122.301 83.6215 123.214 83.3691C123.563 83.272 123.893 83.1749 124.185 83.1361C124.34 83.0778 124.437 83.039 124.573 83.039C125.117 83.0778 125.699 83.0778 126.223 83.1749C126.573 83.2331 126.903 83.3302 127.194 83.4662C127.291 83.5244 127.389 83.7186 127.427 83.8545C127.524 84.2429 127.622 84.3011 127.971 84.1458C128.787 83.8157 129.622 83.4273 130.437 83.1361C131.156 82.8836 131.893 82.6895 132.67 82.7865C133.35 82.8836 133.932 83.5244 133.874 84.204C133.777 85.0584 133.641 85.9322 133.486 86.7671C133.486 86.9031 133.389 87.0584 133.291 87.1555C132.573 87.9322 131.796 88.7089 131.058 89.5244C130.631 90.0487 130.301 90.6895 129.913 91.272C129.622 90.9225 129.272 90.5341 128.981 90.1458C128.69 89.7574 128.301 89.4273 127.816 89.3302C127.777 89.3302 127.719 89.272 127.68 89.2332C127.777 88.5535 128.262 87.971 128.262 87.2526C127.913 87.2914 127.777 87.4856 127.68 87.6797C127.427 88.1264 127.194 88.5535 127 89.0001C126.903 89.1749 126.767 89.3691 126.418 89.272C126.476 89.0001 126.515 88.7089 126.612 88.4565C126.767 87.7768 126.845 87.1555 127.136 86.5147C127.233 86.3205 127.233 86.1264 127.233 85.9322C127.233 85.8933 127.194 85.7962 127.097 85.738C127.039 85.738 126.942 85.7962 126.903 85.8351C126.709 86.2234 126.476 86.6118 126.321 87.0584C126.088 87.6798 125.893 88.3205 125.699 89.0001C125.602 89.3302 125.408 89.4662 125.02 89.4662C125.408 88.0681 125.796 86.67 126.185 85.2526C126.126 85.2526 126.126 85.2137 126.088 85.2137C125.99 85.2526 125.893 85.3108 125.835 85.3496C125.796 85.4079 125.796 85.505 125.796 85.5438C125.35 86.5147 124.923 87.4467 124.534 88.4176C124.34 88.9031 124.185 89.3691 123.99 89.8545C123.952 89.9516 123.893 90.1069 123.893 90.2429C123.796 90.1458 123.796 90.204 123.757 90.204Z" fill="white"/>
<path fill-rule="evenodd" clip-rule="evenodd" d="M44.4758 69.3305C44.5146 69.078 44.5729 68.8839 44.5729 68.6897C44.5729 68.4955 44.6117 68.2625 44.6117 68.0683C44.5146 67.4858 44.6117 67.0003 44.9612 66.4761C44.8059 66.4178 44.67 66.3207 44.5146 66.2819C43.7379 66.0295 43.2525 65.544 43.1554 64.7285C43.0583 64.0877 43.0583 63.4664 42.9612 62.845C42.9612 62.7479 42.9612 62.5926 42.9224 62.4955C42.8641 62.1654 42.9224 62.1071 43.2136 62.0683C43.3107 62.0683 43.3496 62.01 43.4467 62.01C44.0874 62.0683 44.67 61.8159 45.3301 61.8159C45.136 61.5829 44.903 61.5246 44.7088 61.5246C44.0874 61.5246 43.602 61.2333 43.2525 60.7479C42.7282 60.0683 42.1845 59.3887 41.6991 58.6702C41.5049 58.3401 41.369 57.9518 41.2719 57.6023C41.0777 56.9809 40.9224 56.3984 40.8253 55.7188C41.2136 55.9518 41.602 56.1071 41.9515 56.3984C42.7282 57.0197 43.6408 57.2722 44.6117 57.4081C44.9612 57.4664 45.2913 57.5052 45.6214 57.6023C46.301 57.7964 47.0389 57.6994 47.7185 57.6994C47.9515 57.6994 48.2039 57.6023 48.3981 57.5052C49.0195 57.2139 49.6991 57.0197 50.2234 56.5343C50.2816 56.4955 50.3205 56.4955 50.4175 56.4372C50.3787 56.7285 50.3205 56.9227 50.2816 57.1168C49.8933 58.379 49.6408 59.7382 49.5049 61.0392C49.4078 61.8741 49.369 62.7479 49.2719 63.5634C49.2137 63.8935 49.0195 64.1848 48.9224 64.5343C48.6311 65.1557 48.3399 65.7965 48.0486 66.4178C48.0098 66.5732 47.9515 66.7091 47.8544 66.8062C46.9418 67.8159 45.9127 68.6897 44.767 69.4664C44.6117 69.3305 44.5729 69.3305 44.4758 69.3305Z" fill="white"/>
<path fill-rule="evenodd" clip-rule="evenodd" d="M100.223 15.8156C100.359 15.5243 100.456 15.233 100.612 14.9806C101.039 14.2622 101.466 13.5243 101.855 12.7476C102.204 12.068 102.437 11.3495 102.728 10.6699C102.923 10.1845 103.117 9.69903 103.272 9.2136C103.311 9.07767 103.505 8.82525 103.272 8.72816C103.02 8.59224 102.981 8.8835 102.923 9.01942C102.728 9.50486 102.534 10.0486 102.301 10.534C102.204 10.7282 102.107 10.8641 102.01 11.0583C101.563 11.7379 101.175 12.5146 100.651 13.1942C100.126 13.8155 99.738 14.5534 99.2914 15.2719C99.0973 15.5631 99.0002 15.9126 98.8643 16.2039C98.7089 16.6311 98.573 17.0583 98.0293 17.3107C97.6021 17.2136 97.3497 16.767 97.0196 16.4757C96.6701 16.2039 96.34 15.9126 96.0099 15.6214C95.9128 15.0777 96.107 14.5922 96.34 14.1651C96.8643 13.233 97.2526 12.2621 97.738 11.3495C98.0876 10.6699 98.573 10.0486 99.0973 9.46602C99.874 8.63107 100.709 7.91262 101.524 7.19418C101.622 7.09709 101.816 7 101.952 7C103.466 7 104.923 7 106.418 7C106.457 7 106.457 7 106.554 7.03884C105.544 9.11651 105.777 11.1553 107.039 13.0971C106.359 13.4855 105.738 13.7767 105.02 14.0097C104.476 14.1651 103.99 14.301 103.466 14.4563C103.117 14.5534 102.787 14.6505 102.398 14.7864C102.398 14.3981 102.631 14.2039 102.825 14.068C103.505 13.5243 103.893 12.9029 104.146 12.068C104.282 11.5437 104.534 11.0194 104.728 10.4369C104.767 10.2816 104.864 10.1456 104.67 9.95146C104.573 10.1845 104.476 10.3786 104.379 10.6311C103.952 11.602 103.466 12.4563 102.592 13.0971C102.107 13.4272 101.757 13.8155 101.466 14.3592C101.33 14.6505 101.078 14.8835 100.981 15.233C100.845 15.5243 100.612 15.7185 100.223 15.8156Z" fill="white"/>
<path fill-rule="evenodd" clip-rule="evenodd" d="M66.5146 81.6214C66.068 81.3884 65.6408 81.0972 65.1942 80.9418C64.6117 80.7088 63.9903 80.5146 63.3107 80.3787C62.9612 80.2816 62.5728 80.3205 62.2427 80.3787C62.0486 80.3787 61.8156 80.4176 61.6214 80.4176C61.1748 80.4176 60.7476 80.4564 60.3592 80.7477C60.2039 80.903 60.0097 80.9418 59.8738 80.7477C59.5825 80.4176 59.2913 80.0875 59.0389 79.6991C59 79.602 59 79.4467 59.0389 79.3496C59.1359 77.5049 59.233 75.7185 59.3301 73.8738C59.3301 73.4855 59.3884 73.0583 59.4855 72.6117C60.2039 73.9321 61.1748 75.0389 61.7185 76.534C61.8544 76.068 62.0097 75.6214 62.1457 75.2331C62.2427 74.903 62.4369 74.6117 62.7282 74.4175C63.0583 74.1651 63.5049 74.1263 63.7961 74.3593C64.1262 74.6506 64.4758 75.0001 64.8059 75.2913C64.9029 75.3884 65 75.4855 65.0971 75.5826C65.2525 75.6797 65.3884 75.6797 65.5437 75.5826C65.835 75.3884 66.1651 75.1942 66.5146 75.0972C66.9806 74.9418 67.4272 75.136 67.7185 75.5243C68.2039 76.1069 68.6894 76.6894 69.1166 77.2719C69.2719 77.5049 69.4078 77.7574 69.602 77.9904C69.0195 78.5341 68.4369 79.0583 67.8156 79.6409C67.233 80.1263 66.9418 80.903 66.5146 81.6214Z" fill="white"/>
<path fill-rule="evenodd" clip-rule="evenodd" d="M134.845 48.2043C135.427 48.2043 135.952 48.2043 136.437 48.2043C137.466 48.2625 138.437 48.3984 139.447 48.3984C139.971 48.3984 140.515 48.3984 141 48.2625C141.427 48.1072 141.816 47.8159 142.204 47.5829C142.495 47.3887 142.748 47.1363 142.981 46.9033C143.427 46.5538 143.855 46.2237 144.34 45.9324C145.447 45.1557 146.573 44.379 147.68 43.6023C148.107 43.311 148.592 43.0198 149.175 42.9227C149.816 42.8256 150.398 42.4955 151.02 42.3013C151.175 42.2431 151.369 42.146 151.563 42.0489C151.505 42.7285 151.466 43.311 151.214 43.8547C151.117 44.0489 150.981 44.2819 150.787 44.379C150.049 44.7285 149.369 45.1557 148.457 45.0586C148.359 45.311 148.301 45.5441 148.204 45.7965C148.495 45.9907 148.748 46.1654 148.981 46.3596C149.369 46.6509 149.622 47.0392 149.719 47.5829C149.757 48.0683 149.855 48.4955 149.913 48.981C149.913 49.2334 149.855 49.4664 149.757 49.7577C149.66 49.6217 149.622 49.4664 149.524 49.2722C149.427 49.078 149.33 48.845 149.039 48.7479C148.981 48.7479 148.942 48.6897 148.942 48.6509C148.592 47.913 147.971 47.9712 147.35 48.0683C146.961 48.1072 146.515 48.3596 146.185 48.5538C145.505 48.9421 144.923 49.4276 144.243 49.8159C143.369 50.3402 142.495 50.8645 141.583 51.3111C140.748 51.6994 139.874 51.7382 139.02 51.4081C138.476 51.1557 137.893 51.1557 137.311 51.214C136.884 51.2528 136.631 51.1169 136.437 50.7285C136.107 49.913 135.524 49.2722 135.039 48.5538C135 48.4955 134.942 48.3984 134.845 48.2043Z" fill="white"/>
<path fill-rule="evenodd" clip-rule="evenodd" d="M59.6797 69.175C60.3011 69.4274 60.7477 69.9128 61.1749 70.3983C61.2719 69.8157 61.369 69.272 62.1069 69.4274C62.2817 68.3594 63.1166 67.874 63.8933 67.3497C64.2817 67.0973 64.67 66.9031 65.0584 66.7672C65.8739 66.4177 66.4953 66.7672 66.6506 67.6798C66.6506 67.7769 66.6506 67.8157 66.6894 67.9711C66.7865 67.9128 66.8448 67.874 66.8836 67.8157C67.2331 67.2526 68.204 67.2526 68.7283 67.6798C68.9224 67.874 69.1749 68.0099 69.4079 68.2041C69.4079 69.6216 69.3108 71.1167 69.3691 72.573C69.4079 74.0293 69.6021 75.4857 69.9904 76.9226C69.8933 76.8255 69.8545 76.7284 69.7574 76.6313C69.6603 76.5342 69.6021 76.34 69.505 76.3012C68.7865 75.8158 68.7865 75.039 68.6894 74.3206C68.5924 73.3497 68.437 72.3789 68.1069 71.5051C67.9516 71.0779 67.7574 70.9808 67.3302 71.0779C66.6894 71.2138 66.3205 71.6604 66.0292 72.1847C65.738 72.7672 65.4855 73.3886 65.2525 73.9711C65.1554 74.1653 65.0972 74.3594 65.0001 74.6119C64.5729 74.3206 64.1846 74.0293 63.738 73.7381C63.4467 73.5439 62.8253 73.5439 62.5341 73.7381C62.204 74.0293 61.8545 74.3206 61.4661 74.6119C61.369 74.3206 61.2331 73.9711 61.1749 73.641C60.9418 72.7672 60.4564 71.9905 59.971 71.2721C59.6215 70.7866 59.4855 70.3012 59.5244 69.7187C59.5244 69.6216 59.6215 69.4274 59.6797 69.175Z" fill="white"/>
<path fill-rule="evenodd" clip-rule="evenodd" d="M40.3981 45.7962C40.3981 45.6409 40.3981 45.5438 40.3592 45.4079C40.2622 45.0583 40.2039 45.0583 39.8738 45.0195C39.4272 44.9612 39.0389 44.8253 38.6505 44.7282C38.5146 44.67 38.4175 44.5729 38.3204 44.5341C37.6408 44.3399 37.3884 43.8545 37.3495 43.1748C37.6796 43.1166 37.9709 43.1166 38.2622 43.2719C38.9029 43.5632 39.5243 43.8545 40.1651 44.1845C40.8835 44.6312 41.6602 44.9613 42.4369 45.3496C43.1554 45.6991 43.8932 46.0292 44.6699 46.3593C45.2913 46.6117 45.9127 46.8447 46.4952 47.136C46.7476 47.2331 46.9418 47.3884 47.1748 47.4855C47.9127 47.7185 48.5923 47.9127 49.3107 48.1651C49.9321 48.3593 50.5146 48.5923 51.1554 48.8836C51.7379 49.1749 52.4175 49.2719 53.0389 49.4273C53.1942 49.4661 53.3884 49.5244 53.5826 49.5244C53.2913 50.0486 53 50.5341 52.7088 51.0195C52.6117 51.2137 52.4564 51.2525 52.2622 51.2137C51.7379 51.2137 51.1942 51.1554 50.7088 51.1554C50.4175 51.1554 50.1845 51.2137 49.8932 51.3108C48.8835 51.6991 47.9127 51.602 46.8835 51.1166C45.6796 50.5341 44.5728 49.8156 43.5049 49.0389C43.0194 48.6894 42.4369 48.3982 41.8932 48.0681C41.4078 47.8156 40.9224 47.7768 40.4563 47.971C40.2039 48.0681 39.9126 48.1069 39.8156 48.4564C39.8156 48.4952 39.7767 48.5535 39.7767 48.5535C39.233 48.6894 39.1942 49.2719 38.8447 49.7185C38.8447 49.2719 38.8447 48.9418 38.8447 48.5923C38.8447 48.3011 38.9418 48.0681 38.9418 47.7768C39 46.903 39.4855 46.3205 40.2039 45.8933C40.2039 45.9321 40.301 45.8933 40.3981 45.7962Z" fill="white"/>
<path fill-rule="evenodd" clip-rule="evenodd" d="M42.8253 32.1844C42.8641 32.2232 42.8641 32.2815 42.9224 32.3203C43.2525 32.8057 43.6408 33.33 43.9903 33.8155C44.2234 34.2038 44.7088 34.3591 45.0583 34.5533C45.2913 34.6892 45.5243 34.8834 45.7185 35.1358C46.2622 35.7572 46.8447 36.398 47.369 37.0193C47.5632 37.2135 47.7573 37.3689 47.9515 37.5048C48.7865 38.0873 49.1748 38.9611 49.5438 39.8349C50.0292 40.9999 50.4758 42.1067 50.9612 43.2718C51.0583 43.466 51.1554 43.6601 51.2525 43.8931C51.6797 43.7572 52.1263 43.6601 52.5146 43.5048C53.0001 43.4077 53.4855 43.2718 53.9515 43.2135C54.8253 43.1747 55.6991 43.1747 56.5729 43.1747C57.0583 43.1747 57.602 43.3106 58.0875 43.466C58.3593 43.563 58.5535 43.7961 58.903 43.9902C58.3593 44.3786 57.9321 44.7281 57.5049 45.0194C57.1166 45.3106 56.7282 45.5436 56.3399 45.8349C56.1457 45.9902 55.9904 46.0291 55.7574 46.0291C55.1748 45.9902 54.6311 46.1262 54.0486 46.2232C53.6797 46.2621 53.2331 46.1844 52.8059 46.1262C52.5146 46.0873 52.2622 46.0291 51.9709 46.0291C51.3496 46.0291 50.67 46.0291 50.0292 46.0291C49.7379 46.0291 49.4661 45.9902 49.1748 45.932C48.6894 45.8349 48.6311 45.7378 48.534 45.2135C48.437 44.4757 48.301 43.7572 48.2039 43.0194C48.1069 42.3009 47.9515 41.6213 47.8544 40.9028C47.7573 40.1261 47.4661 39.4465 46.7865 38.9999C46.3593 38.7087 45.9709 38.3786 45.5826 38.0873C45.3301 37.8931 45.1942 37.699 45.0583 37.4077C44.767 36.6892 44.3787 36.0485 44.0292 35.33C43.7962 34.8834 43.602 34.4562 43.4078 33.9708C43.1554 33.4854 42.9612 32.9999 42.7282 32.4756C42.67 32.3786 42.67 32.2815 42.6311 32.1844C42.767 32.2232 42.767 32.1844 42.8253 32.1844Z" fill="white"/>
<path fill-rule="evenodd" clip-rule="evenodd" d="M43.1553 50.0095C43.7378 50.5338 44.0291 51.2134 44.3786 51.7959C45.233 51.5435 46.0679 51.7959 46.8835 52.126C47.1747 52.2231 47.3301 52.4756 47.4272 52.8057C47.5243 53.2523 47.6602 53.6794 47.8155 54.2231C47.9126 54.0678 47.9514 53.9707 48.0097 53.8736C48.1456 53.6406 48.301 53.3493 48.4951 53.0969C48.8252 52.6115 49.2718 52.2814 49.8932 52.1843C50.3786 52.126 50.8641 51.9901 51.3883 51.9319C51.5825 51.893 51.8349 51.9319 52.1262 51.9319C51.9709 52.2814 51.8349 52.5726 51.7379 52.8639C51.4466 53.4853 51.1553 54.1649 50.9029 54.7862C50.767 55.1358 50.6116 55.427 50.3204 55.6212C49.5631 56.2037 48.7281 56.728 47.7573 56.8251C46.9806 56.9222 46.165 56.8833 45.3883 56.6892C44.8058 56.5338 44.1844 56.4367 43.6019 56.3008C43.2136 56.2037 42.8252 55.9513 42.4757 55.7571C42.0485 55.5241 41.6019 55.2328 41.2136 54.9416C40.6505 54.5532 40.5534 54.1649 40.7864 53.5435C40.9806 52.9998 41.2136 52.5144 41.466 51.9901C41.6019 51.6989 41.8543 51.4464 42.0874 51.2134C42.3398 50.9222 42.5728 50.6697 42.8252 50.4367C42.8641 50.3008 42.9611 50.1455 43.1553 50.0095Z" fill="white"/>
<path fill-rule="evenodd" clip-rule="evenodd" d="M88.2429 101.097C88.204 100.612 88.1069 100.185 88.0487 99.7379C88.0487 99.6409 88.0099 99.5438 88.0099 99.4467C87.5244 97.9904 87.1943 96.5535 86.8448 95.0972C86.806 94.903 86.8448 94.7088 86.806 94.5146C86.7477 94.3205 86.7089 94.1263 86.5535 93.9709C86.1652 93.5826 85.7768 93.6408 85.5438 94.1263C85.3497 94.4564 85.2526 94.8447 85.0972 95.2331C85.0584 95.3884 85.0001 95.5243 84.9613 95.6797C84.67 95.5243 84.5147 95.2913 84.5147 95.0001C84.4759 94.6506 84.4176 94.2622 84.3788 93.9321C84.3788 93.8739 84.3205 93.7768 84.3205 93.7379C84.3205 93.0195 84.2234 92.2816 84.2817 91.5632C84.3205 90.7865 84.6118 90.1457 85.0972 89.5632C85.4856 89.0777 86.0293 88.8059 86.4565 88.4564C86.8448 88.1651 87.2914 88.1263 87.8157 88.2234C88.1458 89.0777 88.5341 89.9515 88.9225 90.8253C89.2137 91.5632 89.3691 92.3399 89.4079 93.1166C89.4662 93.5438 89.4662 93.5826 89.9516 93.5826C90.2429 94.2234 90.34 94.8059 90.34 95.5243C90.34 96.3981 90.437 97.2719 90.437 98.1457C90.437 98.6311 90.34 99.1166 90.2429 99.602C90.2429 99.6991 90.1458 99.7962 90.0487 99.8933C89.505 100.32 88.9225 100.67 88.2429 101.097Z" fill="white"/>
<path fill-rule="evenodd" clip-rule="evenodd" d="M89.0196 101.68C89.4079 101.447 89.6992 101.194 90.0487 101.058C90.7671 100.612 91.505 100.126 92.3205 99.7961C93.1943 99.4078 94.0099 99.0194 94.9807 98.8641C95.3302 98.8252 95.6603 98.7281 96.1069 98.6311C96.2429 99.1553 96.34 99.6408 96.437 100.184C96.5341 100.612 96.7283 100.767 97.1555 100.709C97.3497 100.67 97.5438 100.573 97.7963 100.515C98.1264 100.417 98.2235 100.515 98.4176 100.864C98.9613 101.777 99.0973 102.786 99.2914 103.757C99.3497 103.951 99.2914 104.204 99.3497 104.398C98.8642 104.786 98.3205 105.175 97.8934 105.602C97.4468 106.049 97.0584 106.515 96.6701 107C96.3982 106.612 96.1458 106.243 95.8545 105.854C95.4662 105.311 94.9807 104.922 94.3982 104.534C92.806 103.524 91.0584 102.786 89.4079 101.932C89.272 101.835 89.2137 101.777 89.0196 101.68Z" fill="white"/>
<path fill-rule="evenodd" clip-rule="evenodd" d="M119.544 84.4954C119.058 84.9614 118.903 85.6411 118.903 86.3789C118.903 86.5731 118.903 86.8061 118.903 87.0003C118.864 87.3886 118.612 87.544 118.321 87.2915C117.699 86.8061 116.923 86.5148 116.495 85.7964C116.398 85.6411 116.204 85.544 116.049 85.4081C115.369 84.9226 114.981 84.9614 114.457 85.6411C114.262 85.5051 114.01 85.3498 113.816 85.2139C113.291 84.7867 112.767 84.4372 112.126 84.243C111.505 84.0488 110.961 83.7576 110.437 83.4275C110.34 83.3692 110.185 83.2721 110.088 83.2333C110.049 82.0682 111.699 79.7381 112.709 79.9323C112.806 80.2236 113 80.476 113.389 80.3207C113.447 80.3207 113.544 80.3789 113.583 80.4177C113.816 80.709 114.068 80.942 114.204 81.2915C114.398 81.5828 114.495 81.9712 114.651 82.2624C114.748 82.4954 114.981 82.4954 115.136 82.3012C115.175 82.2624 115.233 82.1653 115.233 82.0682C115.33 81.3886 115.816 81.0391 116.243 80.6119C116.398 80.476 116.631 80.3789 116.825 80.2236C117.175 79.9323 117.563 79.9906 117.893 80.0877C118.049 80.1265 118.126 80.2818 118.224 80.4177C118.612 81.0391 118.864 81.6799 119.058 82.3595C119.097 82.4954 119.097 82.6508 119.156 82.7479C119.447 83.2721 119.544 83.8547 119.544 84.4954Z" fill="white"/>
<path fill-rule="evenodd" clip-rule="evenodd" d="M96.6311 90.7865C96.6699 90.8253 96.6699 90.8836 96.7282 90.8836C97.2136 91.1748 97.3107 91.369 97.2136 91.8933C97.1554 92.2428 96.7282 92.6311 96.3398 92.6311C95.6602 92.6311 95.0777 92.8253 94.5923 93.3496C94.1068 93.8739 93.3884 94.2234 92.8058 94.7088C92.6117 94.8447 92.5146 95.0972 92.5534 95.3302C92.6117 95.7185 92.7088 96.1069 92.8058 96.4952C93.6796 96.5535 94.5534 96.5923 95.3301 97.0777C95.5243 97.1748 95.6602 97.369 95.9126 97.5632C94.2039 97.8933 92.7087 98.3787 91.3107 99.1554C91.3107 98.7671 91.3107 98.3787 91.3107 97.9904C91.2524 96.8836 91.2524 95.7185 91.1553 94.6117C91.1553 94.3593 91.0194 94.1263 90.9612 93.8739C90.9223 93.6797 90.8253 93.4855 90.767 93.2913C90.9223 92.9612 91.1165 92.67 91.2524 92.3399C91.602 91.602 92.1262 90.9806 92.6117 90.3399C92.8058 90.0486 93.0388 89.8156 93.233 89.5243C93.7185 88.8447 94.3981 88.3593 95.233 88.2622C95.4272 88.2234 95.5631 88.1651 95.7573 88.1263C96.301 87.9709 96.767 88.2234 96.8253 88.7476C96.8253 89.5243 96.9224 90.1457 96.6311 90.7865Z" fill="white"/>
<path fill-rule="evenodd" clip-rule="evenodd" d="M93.6214 7.03884C94.4952 9.31068 95.2331 11.602 94.9806 14.1651C94.8835 14.068 94.8447 14.0097 94.7476 13.9126C94.3593 13.5825 93.9709 13.3884 93.4855 13.3884C92.8447 13.4272 92.1845 13.3301 91.5437 13.6796C91.2136 12.8447 90.8641 12.068 90.534 11.3495C90.4758 11.2136 90.4369 11.0583 90.3398 10.9612C89.7961 10.1845 89.2136 9.46602 88.4952 8.92233C88.1457 8.68932 87.7767 8.49515 87.3884 8.30097C87.233 8.20389 87.0971 8.14563 87.0389 7.95146C86.9418 7.6602 86.8447 7.3301 86.7088 7H93.6214V7.03884Z" fill="white"/>
<path fill-rule="evenodd" clip-rule="evenodd" d="M72.4177 85.602C72.7478 85.602 73.0002 85.5438 73.2915 85.5438C73.5245 85.5438 73.6799 85.4467 73.8158 85.2525C73.874 85.1554 73.9711 85.0583 74.01 84.9612C74.3012 84.6311 74.3983 84.6311 74.7478 84.8642C74.8449 84.9612 74.9808 84.9612 75.0779 85.0195C75.5634 85.1166 75.9905 85.1554 76.476 85.2525C76.6313 85.6409 76.3789 85.9904 76.3401 86.3787C76.243 86.8059 76.0876 87.2525 76.0488 87.7379C75.8935 89.0778 75.7575 90.4952 75.8546 91.8545C75.8935 92.67 75.9517 93.4855 76.2818 94.2622C76.476 94.6506 76.476 95.0389 76.476 95.4855C76.476 95.7768 76.5342 96.1069 76.5342 96.4564C76.4371 96.4952 76.2818 96.5923 76.0876 96.6894C75.9517 96.5535 75.7964 96.3982 75.6604 96.204C75.0391 95.2914 74.4566 94.3205 73.874 93.3884C73.2333 92.437 72.9032 91.3108 72.6119 90.204C72.4177 89.5632 72.2235 88.9418 72.1265 88.3205C72.0294 87.9321 72.0294 87.5438 72.0294 87.1554C72.1653 86.67 72.3206 86.1263 72.4177 85.602Z" fill="white"/>
<path fill-rule="evenodd" clip-rule="evenodd" d="M81.0389 83.9126C81.4661 83.7184 81.9127 83.0776 82.3981 83.7573C82.437 83.7573 82.4952 83.7573 82.4952 83.7573C83.1166 83.5242 83.2137 83.5631 83.369 84.2427C83.4079 84.6893 83.4079 85.1165 83.2719 85.6019C83.0778 86.2233 82.9807 86.9029 82.7865 87.5437C82.7282 87.6796 82.6894 87.8738 82.6312 88.0679C81.5244 87.1553 81.6214 87.3883 80.6894 87.7378C80.3593 87.6408 80.068 87.4854 79.7768 87.4466C79.6214 87.4466 79.3884 87.4854 79.2913 87.6408C79.0972 87.9709 78.903 88.3204 78.8059 88.7087C78.7088 89.0388 78.67 89.4272 78.5729 89.7573C78.3205 90.9223 78.0292 92.0874 77.7962 93.2524C77.6991 93.6408 77.602 93.9709 77.4467 94.3592C77.3108 93.8738 77.1166 93.3884 77.0195 92.9223C76.8641 91.7961 76.8253 90.7281 76.8641 89.6214C76.9224 88.7476 76.9224 87.8349 77.0195 86.9612C77.0583 86.5145 77.1166 86.0874 77.2137 85.6408C77.2525 85.3495 77.3496 85.1165 77.602 84.9223C78.4175 84.398 79.2525 83.8543 80.068 83.2718C80.204 83.1747 80.301 83.1359 80.4564 83.0776C80.8447 82.9417 80.9807 83.0776 81.0777 83.466C81.0389 83.6213 81.0389 83.7573 81.0389 83.9126Z" fill="white"/>
<path fill-rule="evenodd" clip-rule="evenodd" d="M83.9905 94.6122C83.0779 94.5151 82.4371 95.0005 81.7575 95.5248C81.3692 95.8743 80.9808 96.2044 80.5925 96.4957C80.5536 96.3598 80.4565 96.2044 80.4565 96.0685C80.3983 95.486 79.5828 95.2336 79.0973 95.4277C78.9031 95.5248 78.6701 95.6219 78.4177 95.719C78.4177 95.5831 78.3789 95.4277 78.3789 95.3306C78.4177 95.0005 78.4177 94.651 78.5148 94.3209C78.709 93.253 78.9614 92.1462 79.1556 91.0782C79.2527 90.5928 79.3497 90.1073 79.4468 89.6219C79.4857 89.4277 79.4468 89.2724 79.4857 89.0976C79.5245 88.8452 79.5245 88.5539 79.6216 88.3209C79.7187 88.0685 79.9129 88.0297 80.107 88.2238C80.2041 88.3209 80.2624 88.418 80.3595 88.4568C80.4954 88.5151 80.5925 88.5539 80.7478 88.3598C81.0391 87.9714 81.5245 87.9326 81.8158 88.3209C82.1459 88.7481 82.3983 89.1753 82.7284 89.6607C82.9226 89.952 83.1167 90.3015 83.3109 90.5928C83.5051 90.8258 83.6022 91.0782 83.5633 91.4083C83.5633 91.952 83.6604 92.4763 83.6993 93.02C83.6993 93.117 83.6993 93.2141 83.6993 93.3112C83.7381 93.6413 83.7964 94.0297 83.8352 94.3598C83.9323 94.418 83.9905 94.5151 83.9905 94.6122Z" fill="white"/>
<path fill-rule="evenodd" clip-rule="evenodd" d="M83.466 95.3301C84.0873 95.7185 84.4174 96.3592 84.7087 97.0388C84.7669 97.1359 84.7669 97.1748 84.7669 97.2719C84.864 97.466 84.9999 97.5631 85.1941 97.5631C85.4465 97.5631 85.5825 97.4272 85.6407 97.233C85.7378 96.7864 85.7378 96.3981 85.8349 95.9709C85.932 95.5825 86.0291 95.1942 86.1262 94.7476C86.3592 95.7185 86.5533 96.6505 86.7475 97.5243C86.9029 98.0486 86.9999 98.6311 87.1941 99.1554C87.3883 99.699 87.3883 100.223 87.4271 100.864C85.8737 99.9903 84.4757 99.0583 83.0776 98.0486C81.6601 98.9612 80.2038 99.5049 78.6116 99.7379C78.0873 99.835 77.6019 99.835 77.0582 99.9321C76.8252 99.9903 76.631 99.8932 76.5339 99.6408C76.2815 99.1165 75.9902 98.5728 75.7572 98.0486C76.864 97.0388 78.2232 96.5922 79.6213 96.2039C79.7766 96.5922 79.9125 96.9418 80.0096 97.233C80.0679 97.3301 80.1067 97.466 80.165 97.5243C80.3591 97.7961 80.6893 97.8544 80.9417 97.5243C81.1359 97.2719 81.2718 96.9806 81.466 96.7476C81.5242 96.6893 81.563 96.5922 81.6213 96.5534C82.1456 96.068 82.7281 95.5243 83.466 95.3301Z" fill="white"/>
<path fill-rule="evenodd" clip-rule="evenodd" d="M111.991 32.1847C111.447 32.0876 111.447 32.6701 111.059 32.7672C110.67 32.3789 110.34 31.9323 109.893 31.6022C109.525 31.2138 109.039 30.9226 108.593 30.5342C108.554 30.476 108.457 30.3789 108.398 30.4371C108.01 30.5342 107.913 30.243 107.777 29.9905C107.389 29.408 107 28.8449 106.612 28.2624C106.029 27.4274 105.486 26.6119 104.767 25.874C104.379 25.4857 103.991 25.0973 103.563 24.8061C102.826 24.4371 102.34 23.8546 101.816 23.2721C100.981 22.34 100.165 21.3692 99.3886 20.3983C98.8061 19.641 98.2236 18.8643 97.641 18.0876C97.6022 18.0293 97.6022 17.9905 97.5439 17.7963C98.0294 18.0876 98.4177 18.3206 98.8643 18.573C99.0003 18.6701 99.1556 18.709 99.2915 18.806C99.9711 19.0973 100.651 19.4468 101.33 19.7381C102.049 20.0293 102.534 20.6507 103.078 21.175C103.893 22.0099 104.437 23.1167 105.097 24.0876C105.68 24.9614 106.262 25.8352 106.845 26.709C107.194 27.1944 107.427 27.6798 107.777 28.1653C108.262 28.8255 108.845 29.408 109.466 29.9517C110.185 30.5342 110.864 31.1556 111.602 31.7964C111.738 31.8352 111.835 31.9905 111.991 32.1847Z" fill="white"/>
<path fill-rule="evenodd" clip-rule="evenodd" d="M113.253 71.66C113.641 71.6988 113.816 71.9901 114.01 72.2813C114.165 72.126 114.301 71.9901 114.457 71.8541C114.845 71.5046 115.136 71.5629 115.33 72.0289C115.466 72.3784 115.563 72.7085 115.622 73.058C116.01 74.6114 116.398 76.1648 116.787 77.7571C116.884 78.2425 116.981 78.7668 117.02 79.2522C116.243 79.8347 115.563 80.5144 115.039 81.427C114.942 81.2328 114.845 81.1357 114.845 80.9998C114.592 80.2813 114.204 79.6988 113.583 79.3105C113.389 79.1551 113.35 79.0192 113.35 78.825C113.35 78.5338 113.253 78.1842 113.253 77.893C113.194 77.2716 113.097 76.6308 113.097 76.0095C113.059 75.0969 113.059 74.126 113.059 73.1939C113.156 72.6697 113.194 72.1842 113.253 71.66Z" fill="white"/>
<path fill-rule="evenodd" clip-rule="evenodd" d="M137.369 51.9324C137.991 52.0877 138.67 52.1265 139.253 52.379C139.583 52.5149 139.874 52.8644 140.165 53.1557C140.418 53.4469 140.554 53.777 140.806 54.1265C140.845 54.0294 140.903 53.9712 140.903 53.8741C141 53.4858 141.097 53.1557 141.194 52.7673C141.292 52.379 141.486 52.1265 141.816 52.0294C142.457 51.8935 143.078 51.7382 143.66 51.6411C143.816 51.6023 143.991 51.6993 144.185 51.7382C144.476 51.2527 144.767 50.7673 145.059 50.3013C145.156 50.8644 145.447 51.2527 145.893 51.6023C146.224 51.8353 146.418 52.2236 146.476 52.6702C146.515 53.0586 146.573 53.3887 146.612 53.777C146.67 54.1265 146.515 54.3207 146.224 54.4566C145.932 54.612 145.641 54.7479 145.35 54.8061C144.437 55.0392 143.525 55.2333 142.592 55.4663C142.01 55.6217 141.486 55.5634 140.942 55.1362C140.165 54.5149 139.35 53.9324 138.573 53.2916C138.437 53.1945 138.34 53.0586 138.185 53.0586C137.758 52.9615 137.563 52.6702 137.369 52.3207C137.311 52.2236 137.272 52.1265 137.214 52.0294C137.369 51.9906 137.369 51.9906 137.369 51.9324Z" fill="white"/>
<path fill-rule="evenodd" clip-rule="evenodd" d="M71.4855 95.0389C71.0971 94.8059 70.7282 94.5535 70.3399 94.3205C69.7962 93.971 69.369 94.0292 68.9224 94.4564C68.6894 94.7088 68.3981 94.9418 68.1069 95.1943C67.5632 94.6506 66.8836 94.7088 66.1651 94.7477C66.1651 94.4564 66.1651 94.1651 66.1651 93.8739C66.1651 93.6409 66.2234 93.3496 66.2234 93.1166C66.2622 92.1457 66.3204 91.1748 66.3593 90.204C66.3593 90.1457 66.3593 90.0486 66.4175 90.0098C66.5146 89.6603 66.5146 89.2331 66.6894 89.0001C66.8836 88.7477 67.3302 88.6506 67.6214 88.5146C67.8156 88.4176 68.0486 88.3205 68.301 88.1651C68.3399 88.5535 68.3981 88.9418 68.437 89.2719C68.534 89.7574 68.7282 90.1457 68.9806 90.5341C69.2719 90.9807 69.4078 91.4661 69.6991 91.8933C70.2428 92.8642 70.8253 93.7768 71.3496 94.7477C71.3884 94.8448 71.4467 94.9418 71.5438 95.0389C71.5438 95.0001 71.5438 95.0389 71.4855 95.0389Z" fill="white"/>
<path fill-rule="evenodd" clip-rule="evenodd" d="M65.5438 88.7479C65.971 89.078 65.971 89.078 65.8351 89.5634C65.6797 89.9129 65.5826 90.3013 65.5438 90.6314C65.4467 91.4663 65.3885 92.2819 65.3496 93.1557C65.2914 93.7382 65.2914 94.3207 65.1943 94.845C65.1555 95.2916 64.8642 95.5829 64.4176 95.777C63.0584 94.4178 61.8545 93.0198 61.0389 91.1751C61.2331 91.1168 61.369 91.1168 61.5244 91.078C61.7574 91.078 61.9127 90.9809 61.9127 90.7285C61.9516 90.3401 62.1069 90.0489 62.437 89.8159C62.5729 89.7188 62.6312 89.5246 62.7283 89.3693C62.9224 89.0392 63.2137 88.7479 63.6409 88.5537C63.7962 88.7091 63.9904 88.845 64.1263 89.0392C64.2817 89.1751 64.4759 89.3304 64.67 89.5246C65.0584 89.2722 65.2914 89.0392 65.5438 88.7479Z" fill="white"/>
<path fill-rule="evenodd" clip-rule="evenodd" d="M67.7184 97.7578C67.9515 97.2335 68.1456 96.7481 68.3981 96.2626C68.6311 95.7772 69.0194 95.3306 69.5049 95.0393C69.602 95.0005 69.7961 94.9422 69.8544 95.0005C70.2816 95.2918 70.767 95.6218 71.1553 95.9714C71.4854 96.2626 71.7767 96.5927 72.1262 96.884C72.4175 97.1753 72.5534 97.2335 72.9418 96.9811C73.5825 96.5927 74.0097 96.7481 74.3592 97.3694C74.7476 98.0879 75.1359 98.8257 75.5049 99.5442C75.5631 99.6024 75.5631 99.6995 75.602 99.8355C72.8058 99.7384 70.1845 98.9617 67.7184 97.7578Z" fill="white"/>
<path fill-rule="evenodd" clip-rule="evenodd" d="M71.6409 68.4949C71.738 68.6503 71.8351 68.7862 71.9321 68.9804C72.0681 68.8445 72.1652 68.7474 72.2234 68.6503C72.6118 68.2037 73.0389 68.2037 73.5826 68.4561C74.4564 68.8833 74.9807 69.6212 75.2137 70.5338C75.3108 70.9221 75.505 71.3105 75.6021 71.6988C75.6603 71.8348 75.6021 71.9901 75.5632 72.126C75.369 72.5144 75.1749 72.9027 74.9807 73.2911C74.5535 74.0678 74.204 74.9416 73.971 75.7765C73.8739 76.0095 73.7768 76.2425 73.6797 76.5338C73.3302 76.3979 73.0389 76.2425 72.6506 76.1066C72.7088 73.5435 72.3593 71.0192 71.4855 68.5532C71.5826 68.5532 71.6409 68.4949 71.6409 68.4949Z" fill="white"/>
<path fill-rule="evenodd" clip-rule="evenodd" d="M74.5923 96.1655C74.1068 96.0684 73.7767 95.9714 73.4272 95.8743C73.3301 95.816 73.2331 95.7772 73.1942 95.6801C73.0971 95.5247 73 95.3888 72.903 95.2335C72.2233 94.1655 71.5437 93.0587 70.8641 91.9908C70.7282 91.6995 70.5728 91.4082 70.4369 91.117C70.2428 90.7286 70.0486 90.3403 69.7962 89.9519C69.5049 89.5247 69.369 89.0781 69.2719 88.6121C69.1748 87.9713 69.2136 87.3888 69.6991 86.8645C69.8932 86.6121 69.9903 86.3208 70.1457 86.0296C70.3398 85.6412 70.4758 85.3111 70.6699 84.9228C70.8641 84.5927 71.0971 84.5927 71.4466 84.8645C71.4855 84.9228 71.4855 84.9228 71.5437 84.9616C71.9709 85.4471 71.9709 85.4471 71.7767 86.0878C71.4855 86.9616 71.4466 87.8742 71.7379 88.8063C71.7767 89.0005 71.7767 89.1752 71.835 89.3694C72.0292 90.2044 72.2622 90.981 72.5146 91.7966C72.6117 92.1461 72.6505 92.4374 72.8059 92.7675C73.0389 93.4859 73.3301 94.1267 73.7767 94.748C74.0098 95.1364 74.2622 95.6218 74.5923 96.1655Z" fill="white"/>
<path fill-rule="evenodd" clip-rule="evenodd" d="M89.4662 17.1551C89.3691 17.1162 89.272 17.1162 89.2138 17.058C89.0196 16.825 88.8254 16.5337 88.6313 16.2813C88.3983 15.9512 88.1458 15.6211 87.9128 15.2716C87.7186 14.9803 87.4856 14.7861 87.039 15.0386C86.6118 14.592 86.2235 14.1648 85.8351 13.8153C86.2235 13.0386 86.6118 12.3589 86.9419 11.6987C87.2915 10.9609 87.3303 10.1842 87.2915 9.31039C87.7186 9.46573 88.0487 9.69874 88.34 9.99C88.6313 10.2813 88.9225 10.6308 89.175 10.9609C89.3691 11.2521 89.5051 11.5434 89.6604 11.8735C89.8546 12.2619 89.9905 12.6502 90.1847 13.0386C90.2818 13.2327 90.3788 13.4852 90.4759 13.6793C90.6313 14.0677 90.6313 14.3589 90.3788 14.7473C90.1458 15.1745 90.0487 15.6599 89.8546 16.1842C89.3691 15.6211 88.8837 15.0774 88.4371 14.4949C87.9517 13.9123 87.5245 13.3298 87.039 12.8055C87.2332 13.6211 87.8157 14.2036 88.2041 14.9415C88.5924 15.6599 89.0196 16.3395 89.408 17.058C89.4662 17.058 89.4662 17.1162 89.4662 17.1551Z" fill="white"/>
<path fill-rule="evenodd" clip-rule="evenodd" d="M76.3398 77.9517C75.9515 77.272 75.3689 76.8837 74.5922 76.8837C74.7476 76.3982 74.8447 75.9711 74.9418 75.5245C75.2719 74.1652 75.8932 72.9613 76.534 71.7963C76.767 71.3691 77.0194 71.0196 77.602 71.1167C77.699 71.1167 77.835 71.0196 77.9903 71.0196C78.1845 70.9808 78.4175 70.9808 78.5146 71.272C78.5146 71.3109 78.5728 71.4079 78.6117 71.4079C79.1942 71.7575 79.0971 72.2817 79 72.7672C78.9029 73.1555 78.767 73.4856 78.5728 73.874C77.9321 75.1361 77.2524 76.3982 76.5728 77.6604C76.534 77.6992 76.4757 77.7963 76.3398 77.9517Z" fill="white"/>
<path fill-rule="evenodd" clip-rule="evenodd" d="M109.991 81.7768C108.884 80.0293 108.01 78.3399 107.233 76.5341C106.942 75.9127 106.903 75.2914 107.33 74.6506C107.622 74.2623 107.816 74.2234 108.262 74.3593C108.301 74.3593 108.398 74.4176 108.457 74.4176C108.981 74.2623 109.33 74.6118 109.758 74.8448C110.146 75.0972 110.34 75.4273 110.34 75.971C110.34 76.7283 110.437 77.4661 110.476 78.2428C110.534 78.7283 110.534 79.2526 110.573 79.738V79.7962C110.826 80.5535 110.243 81.0972 109.991 81.7768Z" fill="white"/>
<path fill-rule="evenodd" clip-rule="evenodd" d="M68.9806 20.7475C68.6893 21.3689 68.4369 21.9514 68.1456 22.631C67.9514 22.3398 67.7573 22.1068 67.6213 21.8543C67.4272 21.5631 67.1747 21.3301 66.8446 21.233C66.3592 21.0776 65.932 20.9417 65.4466 20.7475C64.767 20.4951 64.0291 20.5922 63.3106 20.5922C62.2815 20.5922 61.2718 20.5922 60.2038 20.5922C60.165 20.5922 60.0679 20.5922 59.9708 20.5534C60.7864 19.3883 61.5631 18.2233 62.3786 17.0582C64.0291 19.3495 66.2233 20.5534 68.9806 20.7475Z" fill="white"/>
<path fill-rule="evenodd" clip-rule="evenodd" d="M71.835 76.34C71.5437 76.5342 71.2913 76.6895 71 76.8837C70.767 76.2429 70.5728 75.6798 70.4758 75.039C70.3787 74.3206 70.2427 73.641 70.1457 72.9031C70.0874 72.573 70.0874 72.2235 70.0874 71.8934C70.0486 70.6895 70.0486 69.4662 70.0486 68.2041C70.0486 68.1652 70.0486 68.107 70.0874 67.9128C70.2816 68.1652 70.4758 68.3012 70.6311 68.4953C70.7282 68.4565 70.8253 68.4565 70.9224 68.3982C71.3884 69.6604 71.6408 70.9808 71.835 72.2817C72.0292 73.641 71.7767 75.0002 71.835 76.34Z" fill="white"/>
<path fill-rule="evenodd" clip-rule="evenodd" d="M112.67 71.6994C112.476 74.2237 112.321 76.6315 112.709 79.0198C112.418 79.1169 112.224 79.1558 111.991 79.2528C111.796 79.3499 111.602 79.5053 111.35 79.6024C111.311 79.3111 111.214 79.0198 111.214 78.7286C111.156 78.3791 111.117 77.9907 111.059 77.6606C111.02 76.3985 110.864 75.1363 110.923 73.8742C110.923 73.0587 111.408 72.4761 112.088 72.0295C112.185 71.9324 112.379 71.8548 112.67 71.6994Z" fill="white"/>
<path fill-rule="evenodd" clip-rule="evenodd" d="M115.719 71.5632C115.757 71.5049 115.816 71.4661 115.855 71.4078C116.301 70.9807 116.631 71.0195 116.825 71.602C116.923 71.7962 117.02 72.0292 117.117 72.2234C117.466 72.7671 117.699 73.3496 117.796 73.971C117.855 74.1651 117.952 74.3593 117.99 74.5146C118.088 74.8447 118.223 75.2331 118.321 75.5826C118.515 76.3399 118.709 77.0778 118.864 77.8544C118.961 78.437 119 78.9613 119.097 79.5438C119.097 79.6991 119.156 79.835 119.194 80.0292C119.097 79.8933 119 79.7962 118.961 79.738C118.767 79.5049 118.573 79.3108 118.223 79.2525C117.99 79.2137 117.893 79.0583 117.855 78.8642C117.796 78.5729 117.699 78.3399 117.66 78.0486C117.466 77.0195 117.175 76.068 116.825 75.136C116.495 74.2234 116.243 73.2525 115.952 72.3205C115.855 72.0875 115.816 71.8544 115.719 71.5632Z" fill="white"/>
<path fill-rule="evenodd" clip-rule="evenodd" d="M94.4952 7.03906H97.6409C97.6991 7.75751 97.9904 8.39829 97.8933 9.11674C97.8933 9.36916 97.738 9.60217 97.602 9.75751C97.0583 10.476 96.67 11.2527 96.3982 12.0682C96.3011 12.2624 96.2428 12.4565 96.1069 12.6507C96.0098 10.6701 95.3302 8.88373 94.4952 7.03906Z" fill="white"/>
<path fill-rule="evenodd" clip-rule="evenodd" d="M100.126 103.816C99.9322 102.981 99.7768 102.204 99.6409 101.447C99.971 101.252 100.321 101.097 100.651 100.903C101.427 100.515 102.204 100.515 103.02 100.515C103.117 100.515 103.272 100.573 103.311 100.67C103.602 101 103.855 101.388 104.146 101.777C102.787 102.456 101.466 103.136 100.126 103.816Z" fill="white"/>
<path fill-rule="evenodd" clip-rule="evenodd" d="M60.7864 90.5343C60.165 89.0391 59.7767 87.4857 59.5243 85.8935C59.8738 85.7382 60.165 85.8353 60.3592 86.0294C60.9417 86.476 61.466 86.9615 62.0097 87.4469C62.1456 87.5828 62.2815 87.7382 62.4369 87.9324C62.2815 88.1265 62.1068 88.3207 62.0097 88.5149C61.9126 88.8061 61.8544 89.078 61.8544 89.4275C61.8155 90.2042 61.8155 90.2042 61.0777 90.3984C61.0388 90.4372 60.9417 90.4955 60.7864 90.5343Z" fill="white"/>
<path fill-rule="evenodd" clip-rule="evenodd" d="M118.223 33.2522C118.185 33.058 118.185 32.8638 118.126 32.7085C119.583 32.5726 121.039 32.6696 122.495 32.7085C122.787 33.1939 122.437 33.4852 122.262 33.7764C120.942 33.8153 119.641 33.8153 118.321 33.8735C117.66 33.8735 116.981 33.8153 116.398 33.4269C115.855 33.0968 115.524 33.1551 115.078 33.7182C115.039 33.7764 115.039 33.8153 114.981 33.9124C114.787 33.3493 114.981 32.9997 115.427 32.8638C115.855 32.7085 116.301 32.7085 116.689 32.9997C117.117 33.3298 117.66 33.3298 118.223 33.2522Z" fill="white"/>
<path fill-rule="evenodd" clip-rule="evenodd" d="M85.3496 14.301C85.7768 14.8447 86.1652 15.369 86.5535 15.8544C85.971 16.67 85.4467 17.5438 84.8642 18.3787C84.4176 17.5438 83.9904 16.7282 83.5632 15.9127C84.1263 15.3302 84.7671 14.8447 85.3496 14.301Z" fill="white"/>
<path fill-rule="evenodd" clip-rule="evenodd" d="M109.893 82.0098C109.757 82.3593 109.602 82.6894 109.505 83.0389C108.981 83.0778 108.495 82.8447 108.01 82.6506C107.874 82.5923 107.777 82.4564 107.68 82.3593C107.194 81.6797 106.748 81.0001 106.262 80.3205C106.126 80.0875 106.029 79.835 105.874 79.602C105.835 79.5438 105.874 79.4467 105.874 79.3496C105.971 79.3496 106.068 79.3496 106.126 79.4079C106.223 79.5049 106.32 79.6409 106.417 79.738C106.845 80.0875 107.33 80.4176 107.816 80.7477C108.398 81.136 109.039 81.4855 109.602 81.8739C109.757 81.8739 109.796 81.971 109.893 82.0098Z" fill="white"/>
<path fill-rule="evenodd" clip-rule="evenodd" d="M65.5826 74.7088C65.971 73.6796 66.1651 72.6699 66.8836 71.8932C67.0389 71.7573 67.2331 71.6602 67.369 71.5631C67.8545 72.0874 68.1069 73.9321 68.0486 74.7476C67.6603 74.6117 67.3302 74.3592 66.8836 74.3592C66.4564 74.3592 66.0681 74.6117 65.5826 74.7088Z" fill="white"/>
<path fill-rule="evenodd" clip-rule="evenodd" d="M80.1069 76.0099C80.1069 76.107 80.1651 76.2041 80.1651 76.2429C80.068 76.4954 79.971 76.7284 79.8156 76.9808C79.2525 77.8546 78.67 78.6701 78.0875 79.5439C78.0292 79.6022 77.9904 79.6993 77.9321 79.7963C77.5438 79.3109 77.1554 78.8643 76.8253 78.3789C77.8933 77.5633 79.1943 77.0779 80.068 75.9711C80.0098 75.9711 80.068 76.0099 80.1069 76.0099Z" fill="white"/>
<path fill-rule="evenodd" clip-rule="evenodd" d="M66.9806 97.4274C66.4175 97.0779 65.8738 96.7478 65.2913 96.3982C65.3495 96.1652 65.3884 95.9711 65.4466 95.7186C65.5825 95.7186 65.7379 95.6798 65.8738 95.6798C66.2233 95.6798 66.5146 95.6798 66.8447 95.6798C67.1748 95.6798 67.466 95.8157 67.6602 96.1652C67.2719 96.4953 67.5243 97.0779 66.9806 97.4274Z" fill="white"/>
<path fill-rule="evenodd" clip-rule="evenodd" d="M132.864 89.2723C132.767 90.1461 131.738 92.3403 131.214 92.9228C131.02 92.6315 130.825 92.282 130.631 91.9519C131.253 91.0199 132.029 90.1073 132.864 89.2723Z" fill="white"/>
<path fill-rule="evenodd" clip-rule="evenodd" d="M139.408 29.3106C138.767 29.4076 138.243 29.563 137.602 29.6601C137.602 28.8834 137.855 28.1649 137.991 27.3882C138.282 27.6795 138.476 27.9708 138.728 28.3008C138.923 28.6504 139.156 28.9805 139.408 29.3106Z" fill="white"/>
<path fill-rule="evenodd" clip-rule="evenodd" d="M145.932 50.4372C146.088 50.6314 146.282 50.8255 146.418 51.0197C146.088 50.9615 145.991 50.7673 145.835 50.5343C145.894 50.476 145.894 50.476 145.932 50.4372Z" fill="white"/>
<path fill-rule="evenodd" clip-rule="evenodd" d="M69.0778 86.4173C68.9807 86.4755 68.9225 86.5726 68.8254 86.6114L68.7866 86.5726C68.8837 86.5143 68.9225 86.4173 69.0196 86.3784C69.0778 86.3784 69.0778 86.3784 69.0778 86.4173Z" fill="white"/>
<path fill-rule="evenodd" clip-rule="evenodd" d="M83.1166 39.8737V42.7864C82.6312 42.6893 82.1457 42.5922 81.7574 42.5922C81.0778 42.5922 80.3011 43.3106 80.3011 44.631C80.3011 45.1553 80.3593 45.8932 80.3593 46.0679L80.4953 46.0873C80.4953 45.7961 80.5535 44.631 81.6603 44.631C82.0098 44.631 82.4953 44.6699 83.0778 44.767V50.9611L85.0584 49.1359V45.1165C86.2623 45.3106 87.5244 45.5048 88.3399 45.3106V50.767L92.6118 47.3301V50.3786C92.6118 51.699 91.9322 52.2233 91.9322 52.2233L92.1846 52.5728C95.0778 51.6408 94.4564 49.3689 94.4564 45.932C94.4564 42.9223 95.4273 41.8543 95.4273 41.8543H91.8933V42.5339H93.7768C92.4176 43.2718 92.6118 46.0291 92.6118 46.3204V46.4174L89.4079 48.9417C89.4079 48.9417 90.3788 47.9126 90.3788 45.2136V35.6601L88.3982 37.6019V44.1844C87.6215 44.1844 86.4176 43.7572 85.0972 43.3106V38.864C85.0972 36.7864 85.2525 36.6893 85.6797 35.7184H80.6506V36.398H84.2234C83.738 36.9223 83.1166 37.6019 83.1166 39.8737Z" fill="white"/>
<path fill-rule="evenodd" clip-rule="evenodd" d="M93.9127 40.3595L95.5244 38.709C95.5244 38.709 94.2622 37.8352 94.3593 36.8255C94.3593 36.8255 92.8447 38.1265 92.7477 38.4177C92.5535 39.4857 93.9127 40.3595 93.9127 40.3595Z" fill="white"/>
<path fill-rule="evenodd" clip-rule="evenodd" d="M99 42.7282C99 42.7282 99.9709 42.9223 99.9709 44.1456V47.6796C99.2913 48.6505 98.6117 49.2719 98.2816 49.2719C98.0874 49.2719 98.0292 49.1359 98.0292 48.3592V45.0194C98.0874 44.6311 97.9903 43.1165 99 42.7282ZM97.602 50.3981C98.3787 50.3981 99.2525 49.7573 100.029 48.7476V51.3495H97.2525C95.6602 51.3495 94.4563 52.4175 94.7476 54.5146H95.0389C95.0389 54.5146 95.1748 52.9612 96.8253 52.9612H99.2913C100.806 52.9612 101.816 51.7961 101.816 50.2427V46.9029C101.816 44.6311 101.854 43.3689 101.272 42.8252C101.272 42.8252 102.689 42.1068 102.884 40.4563L102.631 40.3204C102.631 40.3204 101.524 41.7767 99.7379 41.7767H98.67L96.2039 44.0485V48.3592C96.2428 49.9515 96.8641 50.3981 97.602 50.3981Z" fill="white"/>
<path fill-rule="evenodd" clip-rule="evenodd" d="M105.058 50.9225L103.893 52.2235L105.253 53.738L106.612 52.2235L105.641 50.9225V45.1166C106.165 43.8933 107.097 42.4953 107.719 42.4953C108.165 42.4953 108.301 43.2137 108.398 43.8933L107.777 44.4759V51.0196C107.777 52.7671 107.136 53.6409 106.515 53.9322L106.651 54.2623C108.165 54.2623 109.563 53.0584 109.563 50.3982V42.7865L108.942 43.3691C108.787 42.6312 108.495 41.7768 107.68 41.7768C106.806 41.7768 105.835 43.272 105.544 43.7963V39.4856C105.544 37.1166 105.777 36.2428 106.359 35.8545L106.223 35.6215C105.253 35.7574 103.699 36.8254 103.699 39.6409V50.3011L105.02 48.6895V50.9225H105.058Z" fill="white"/>
<path fill-rule="evenodd" clip-rule="evenodd" d="M108.942 59.6407V60.3591H111.991L113.389 61.6795L115.039 59.9708L113.389 58.2814L112.029 59.6407H108.942Z" fill="white"/>
<path fill-rule="evenodd" clip-rule="evenodd" d="M103.893 68.8837C103.078 68.8837 102.243 70.1458 101.854 70.7866V68.8837H98.6117V69.272C99.9709 69.272 100.029 69.9516 100.029 71.1167V78.1458H101.175V80.6507L99.9709 81.9711L101.524 83.5633L103.019 81.9711L101.854 80.6507V72.0876C102.398 70.9225 103.272 69.6604 103.854 69.6604C104.34 69.6604 104.476 70.5924 104.534 71.3109L103.951 71.8934V76.8254C103.951 78.6313 102.786 79.5439 102.786 79.5439L103.019 79.8352C103.019 79.8934 105.738 78.8254 105.738 76.2041V70.0099L105.058 70.6895C105.117 69.9128 104.767 68.8837 103.893 68.8837Z" fill="white"/>
<path fill-rule="evenodd" clip-rule="evenodd" d="M103.311 61.2913V58.2428L105.117 56.8253C105.388 57.8932 106.748 58.8253 106.748 58.8253L103.311 61.2913ZM95.7185 63.3107C95.0777 63.3107 95.1748 60.5146 95.3689 60.068H97.5049V61.8738C96.767 62.6505 96.0097 63.3107 95.7185 63.3107ZM115.136 65.5437C114.651 66.4175 113.874 67.0971 113.194 67.0971C111.738 67.0971 105.291 60.7088 105.291 60.7088L108.592 58.3398C108.359 58.0874 106.029 55.1359 106.029 55.1359L103.311 57.1748C103.369 55.8544 103.505 55.466 103.796 55.0777H100.223V55.7573H102.728C102.146 56.2427 101.466 56.9224 101.466 59.1942V62.2039L98.2816 64.7282C98.2816 64.7282 99.3495 63.5049 99.3495 61.6214V58.4369C99.3495 56.301 98.5728 55.4272 96.8253 55.4272H95.0388C94.1651 55.4272 93.8155 55.5243 93.6796 54.4175H93.3884C93.233 55.3301 93.233 56.8835 94.9806 56.8835H97.5049V59.3495H95.1748L93.3884 61.5243C93.2913 63.0389 93.4272 64.4758 94.8835 64.4758C95.7185 64.4758 96.7282 63.6991 97.5049 62.9806V66.2234L101.466 63.1748V65.7379H104.476V65.0583H103.311V61.3301C103.796 61.8738 110.185 68.6894 112.476 68.6894C114.553 68.6894 115.66 65.7379 115.66 65.7379L115.136 65.5437Z" fill="white"/>
<path fill-rule="evenodd" clip-rule="evenodd" d="M82.107 58.8254C82.107 55.6215 83.408 53.7768 83.7964 53.5826V63.5633C82.7284 62.6506 82.107 61.0972 82.107 58.8254ZM86.1653 60.7477H90.9226V62.6895C90.9226 62.6895 89.7964 64.573 86.942 64.573C86.0682 64.573 85.2915 64.437 84.6701 64.0875V60.2623C85.0002 60.5147 85.4857 60.7477 86.1653 60.7477ZM84.6701 66.1264C85.2527 66.2817 85.8352 66.3788 86.4566 66.3788C89.9905 66.3788 91.9323 63.7574 91.9323 61.3302C91.9323 58.9613 90.4371 59.0584 89.8546 59.0584H86.2235C85.7381 59.0584 85.0973 58.9613 84.6701 58.5341V53.5438C88.4371 53.2526 90.6313 54.0293 90.8255 55.5244L89.6604 56.7283L91.1556 58.3399L92.6507 56.7283L91.408 55.4273C91.408 53.6409 89.8546 51.7962 86.5148 51.7962C82.4371 51.7962 80.0099 55.0778 80.0099 59.2526C80.0099 62.7477 81.5633 64.9613 83.8352 65.8934V67.8739L82.5342 69.3303L84.2235 71.0778L85.9323 69.3303L84.6701 67.9128V66.1264Z" fill="white"/>
<path fill-rule="evenodd" clip-rule="evenodd" d="M90.2427 69.1361C89.9903 68.9419 89.5048 68.6507 88.7281 68.6507L85.9708 71.6021V75.3885C85.9708 77.4662 86.3592 78.1846 87.8738 78.1846L89.6019 76.5924H87.8155V72.5147C87.8155 70.4371 88.5922 69.6215 88.7281 69.6215C89.2718 69.6215 89.8932 70.4953 90.2427 71.0196V76.34C90.2427 79.3497 88.6311 80.5147 88.6311 80.5147L88.8252 80.7478C90.1844 80.7089 92.0874 79.2138 92.0874 76.4953V68.3594C92.0874 66.1846 93.233 65.1167 93.233 65.1167L93.0971 64.9225C91.0194 65.4079 90.2815 66.9613 90.2427 69.1361Z" fill="white"/>
<path fill-rule="evenodd" clip-rule="evenodd" d="M98.6701 70.8834C98.6701 69.0775 95.7574 68.5533 95.7574 68.5533L94.0681 70.3008C94.0098 70.3397 97.4079 70.2426 97.4079 72.029C97.4079 72.7086 95.8545 74.1261 95.272 74.6115C95.272 74.5145 95.272 74.3591 95.272 74.262C95.272 71.6601 94.7865 71.3688 93.4273 70.7863V75.4853C93.4273 77.0776 94.4565 78.631 96.6312 78.0873L98.1264 76.4368V76.1649C97.7963 76.2426 97.5438 76.3979 96.67 76.3979C95.9128 76.3979 95.5632 75.9125 95.3691 75.3882C96.1069 74.8057 98.6701 72.6698 98.6701 70.8834Z" fill="white"/>
</svg>
