<svg width="188" height="114" viewBox="0 0 188 114" fill="none" xmlns="http://www.w3.org/2000/svg">
<path fill-rule="evenodd" clip-rule="evenodd" d="M124.832 66.6013C122.792 66.2739 121.143 65.6695 119.644 64.6873C118.99 64.2592 117.995 63.4281 117.932 63.2644C117.919 63.2141 117.73 62.9748 117.529 62.723C116.937 61.9675 116.622 61.5142 116.408 61.0986C116.307 60.872 116.194 60.6705 116.169 60.6579C116.144 60.6327 116.03 60.3557 115.942 60.0409L115.766 59.4617L116.219 58.9203C116.471 58.6181 116.698 58.3662 116.723 58.341C116.824 58.2529 117.818 57.0063 117.957 56.7922C118.146 56.5152 118.184 56.5656 118.36 57.2204C118.511 57.8122 119.115 59.084 119.607 59.8521C120.79 61.7408 122.402 62.8741 124.782 63.4659C125.374 63.6296 125.676 63.6422 126.91 63.6422C128.207 63.6422 128.433 63.617 129.139 63.4281C132.425 62.5467 134.931 59.8521 135.711 56.4019C135.787 56.0241 135.837 55.4449 135.837 54.702C135.837 53.7702 135.812 53.4428 135.623 52.6747C134.969 49.8793 134.075 48.4439 132.224 47.2476C130.096 45.8751 127.64 45.4722 124.543 46.0011C124.14 46.0766 123.661 46.1647 123.497 46.2151C123.321 46.2655 123.17 46.2781 123.145 46.2655C123.132 46.2403 125.701 43.1175 128.862 39.3274L134.629 32.4271L127.35 32.4145L120.072 32.3893L121.458 30.9161L122.83 29.4302H140.862L140.383 30.0094C140.106 30.3368 137.449 33.51 134.477 37.0609L129.063 43.5331L129.34 43.5834C129.504 43.6086 129.995 43.6967 130.461 43.7597C133.823 44.276 136.996 46.6936 138.305 49.7408C138.708 50.6474 139.048 51.9696 139.174 53.0777C139.3 54.1857 139.225 56.2886 139.011 57.3085C138.041 62.1312 134.729 65.4176 129.781 66.4879C128.736 66.7146 125.94 66.7775 124.832 66.6013ZM142.41 65.9087C142.511 65.808 145.621 62.2067 149.361 57.9003C158.289 47.5876 159.674 45.9129 160.883 44.0871C162.469 41.6821 163.111 39.5163 162.885 37.3631C162.507 33.9003 160.341 31.3316 157.017 30.425C156.274 30.2109 156.098 30.1983 154.7 30.1983C153.353 30.1983 153.101 30.2235 152.496 30.3872C151.665 30.6139 150.494 31.1553 149.839 31.6212C149.235 32.0493 148.253 33.0693 147.85 33.6863C147.157 34.7314 146.666 36.1039 146.503 37.4764L146.414 38.2193H142.901L142.952 37.5645C143.015 36.7335 143.254 35.5373 143.531 34.6936C144.551 31.4323 147.258 28.6621 150.394 27.6044C151.879 27.1133 152.597 27.0126 154.612 27C156.702 27 157.558 27.1259 159.069 27.6422C162.872 28.9769 165.554 32.0997 166.284 36.0661C166.498 37.212 166.486 39.4281 166.247 40.511C165.718 42.979 164.496 45.1826 161.764 48.595C160.744 49.8919 158.528 52.4355 153.818 57.7366L149.285 62.8489L158.616 62.8867L167.934 62.937L166.599 64.511L165.277 66.085H142.259L142.41 65.9087Z" fill="white"/>
<path fill-rule="evenodd" clip-rule="evenodd" d="M103.716 49.4386V38.3075L98.8678 38.2823C94.574 38.2571 94.0451 38.2445 94.1459 38.1438C94.2088 38.0808 94.6118 37.5897 95.0525 37.0609C95.4932 36.532 95.8835 36.0661 95.9339 36.0157C95.9717 35.9654 96.148 35.7639 96.3242 35.5624L96.639 35.1847H117.541L117.315 35.4869C117.101 35.7891 116.811 36.1291 116.572 36.3809C116.509 36.4439 116.27 36.7209 116.056 36.9853C115.552 37.5771 115.3 37.8793 115.086 38.1186L114.922 38.2949H107.065V47.4491C107.065 56.3893 107.065 56.7922 106.838 56.9811C106.813 57.0063 106.435 57.447 105.995 57.9759C105.554 58.5047 105.076 59.0714 104.924 59.2351C104.786 59.3862 104.584 59.6254 104.484 59.7513C104.396 59.8772 104.219 60.0913 104.093 60.2172C103.98 60.3557 103.879 60.4816 103.879 60.5194C103.879 60.5446 103.842 60.5824 103.791 60.5824C103.741 60.5824 103.716 56.8048 103.716 49.4386Z" fill="white"/>
<path fill-rule="evenodd" clip-rule="evenodd" d="M75.4218 65.8709C75.3967 65.8458 75.3715 58.9328 75.3715 50.5089V35.1847H91.1868L90.9601 35.4113C90.8468 35.5247 90.595 35.8017 90.4313 36.0283C90.255 36.2424 89.9906 36.5698 89.8269 36.7461C89.6758 36.9224 89.4239 37.2246 89.2602 37.4134C89.1091 37.5897 88.8825 37.8793 88.7566 38.0304L88.5299 38.2949H78.7209V48.1165H84.7901C88.1396 48.1165 90.8594 48.1417 90.8594 48.1668C90.8594 48.2046 90.7461 48.3557 90.6076 48.5194C90.4565 48.6831 90.1794 49.0105 89.978 49.2372C89.7891 49.4764 89.5121 49.7912 89.3862 49.9549C89.2477 50.106 89.1217 50.2697 89.084 50.32C89.0462 50.3578 88.8825 50.5593 88.7062 50.7608C88.5299 50.9496 88.3914 51.1385 88.3914 51.1763C88.3788 51.2141 86.213 51.2267 83.5561 51.2267H78.7209V62.8111H91.1994L91.0105 63.0378C90.9098 63.1763 90.318 63.8688 89.7135 64.5992L88.5929 65.9213H82.0451C78.4313 65.9213 75.4596 65.8961 75.4218 65.8709Z" fill="white"/>
<path fill-rule="evenodd" clip-rule="evenodd" d="M52.3788 35.1721L56.3075 35.2099C58.6747 35.2351 60.362 35.2728 60.5635 35.3358C60.7398 35.3736 61.2812 35.5121 61.7597 35.6254C62.3767 35.7765 62.9056 35.978 63.5352 36.2802C64.0262 36.532 64.4292 36.7587 64.4292 36.7838C64.4292 36.809 64.5173 36.872 64.6181 36.9224C65.0714 37.1238 66.5068 38.6978 66.5068 38.9874C66.5068 39.0378 66.532 39.1007 66.5698 39.1133C66.6453 39.1385 67.0735 40.0074 67.0735 40.1207C67.0735 40.1585 67.1238 40.297 67.1868 40.4229C67.2497 40.5488 67.3757 41.0273 67.4764 41.4932C67.6149 42.2235 67.6401 42.5131 67.6023 43.6968C67.5771 44.7545 67.5268 45.17 67.3883 45.6107C66.9853 46.9832 66.2172 48.1291 65.0714 49.0735C64.9706 49.1616 64.8195 49.2749 64.7692 49.3253C64.5803 49.489 64.7188 49.5897 65.4365 49.8416C65.8269 49.9675 66.2424 50.1438 66.3431 50.2067C66.4565 50.2823 66.7587 50.4586 67.0231 50.6223C67.5645 50.9371 68.3075 51.6296 68.7859 52.234C68.9622 52.4481 69.1259 52.6495 69.1511 52.6747C69.2518 52.7503 69.9444 54.2235 69.9444 54.3494C69.9444 54.425 69.9696 54.5131 70.0199 54.5509C70.0577 54.6013 70.171 54.9916 70.2718 55.4323C70.4103 56.0493 70.4607 56.4649 70.4481 57.2959C70.4481 58.6055 70.2844 59.4365 69.7933 60.6202C69.5792 61.0986 69.1889 61.8542 69.1259 61.8542C69.0881 61.8542 69.063 61.8919 69.063 61.9423C69.063 62.1941 67.703 63.6044 66.9475 64.1459C66.0913 64.7503 65.0336 65.2414 63.9885 65.5058C62.6537 65.8332 62.3012 65.8584 57.2644 65.8961L52.3788 65.9465V35.1721ZM62.2004 62.6223C62.616 62.5593 63.0944 62.446 63.2833 62.383C63.447 62.3201 63.6485 62.2571 63.7114 62.2571C63.8625 62.2571 64.4795 61.9549 64.8195 61.7156C65.2225 61.4512 65.9024 60.7964 66.0787 60.532C66.1543 60.4061 66.2424 60.2802 66.2676 60.255C66.5446 60.0032 66.9727 58.8825 67.0986 58.064C67.2875 56.7167 67.0986 55.6086 66.4942 54.4628C66.1668 53.8709 65.6002 53.2917 64.8699 52.8258C63.4092 51.8814 62.3515 51.7052 58.2844 51.68L55.6905 51.6674L55.6653 57.2456L55.6527 62.8111L58.5488 62.786C60.6768 62.7608 61.6338 62.723 62.2004 62.6223ZM60.7146 48.4439C61.0672 48.3431 61.3946 48.2298 61.4449 48.2046C61.4827 48.1669 61.6086 48.1165 61.7219 48.0787C61.9864 48.0032 62.9308 47.3988 63.0693 47.2225C63.1196 47.1469 63.2455 46.9832 63.3463 46.8825C63.4344 46.7818 63.5729 46.6181 63.6485 46.5299C63.8122 46.341 64.1144 45.6989 64.1144 45.5478C64.1144 45.4974 64.1773 45.3337 64.2529 45.2078C64.3662 45.0063 64.3788 44.7293 64.3788 43.6086C64.3914 42.4124 64.3662 42.1983 64.2151 41.7324C64.0136 41.1532 63.7996 40.7125 63.6611 40.5488C63.5981 40.4984 63.5477 40.4229 63.5477 40.3851C63.5477 40.3599 63.3966 40.171 63.2204 39.9822C62.4774 39.2015 61.1049 38.5719 59.7828 38.383C59.4302 38.3452 58.3599 38.2949 57.4029 38.2949H55.6527V48.6957L57.8688 48.6579C59.8332 48.6202 60.148 48.595 60.7146 48.4439Z" fill="white"/>
<path fill-rule="evenodd" clip-rule="evenodd" d="M44.1564 65.9213L32.7608 65.9087L21.3526 65.8835L21.3148 35.1847H24.5887V62.8111H40.404V35.1847L42.0661 35.1973L43.7156 35.2225L43.7534 62.8111H47.2665V68.6915L46.9643 69.0441C46.8006 69.233 46.6369 69.447 46.5866 69.4974C46.5488 69.5603 46.3851 69.7366 46.234 69.9129C46.0829 70.0892 45.8688 70.3284 45.7807 70.4544C45.68 70.5803 45.5289 70.7692 45.4281 70.8825C45.3274 70.9832 45.1007 71.2476 44.9245 71.4743C44.7356 71.6884 44.4963 71.978 44.383 72.1039L44.1564 72.3557V65.9213Z" fill="white"/>
<path fill-rule="evenodd" clip-rule="evenodd" d="M158.087 78.4628H160.719L160.882 79.0042C160.983 79.2938 161.311 80.4019 161.613 81.447C161.928 82.5047 162.205 83.3988 162.23 83.4239C162.268 83.4617 162.608 82.3662 163.011 80.9937L163.741 78.5005L166.31 78.4502V85.7282H164.635V83.361C164.635 82.0262 164.61 81.0189 164.572 81.0567C164.534 81.107 164.182 82.1648 163.791 83.4365L163.086 85.7282L162.205 85.7156L161.336 85.6905L160.605 83.3358L159.888 80.9811L159.863 83.3484L159.85 85.7282H158.087V78.4628Z" fill="white"/>
<path fill-rule="evenodd" clip-rule="evenodd" d="M134.78 78.4628H136.694V81.2581L137.991 81.233L139.288 81.2204L139.338 78.4628H141.239V85.7282H139.325V82.6936H136.694V85.7282H134.78V78.4628Z" fill="white"/>
<path fill-rule="evenodd" clip-rule="evenodd" d="M126.394 79.8982H124.316V78.4628H130.385V79.8982H128.307V85.7282H126.394V79.8982Z" fill="white"/>
<path fill-rule="evenodd" clip-rule="evenodd" d="M114.973 78.4628H120.161V79.8982L118.511 79.9234L116.849 79.936L116.836 80.553L116.811 81.1574L117.541 81.2078C117.944 81.233 118.65 81.2581 119.103 81.2581H119.921V82.6936L118.385 82.7188L116.849 82.7314V84.2424L120.324 84.2928V85.7282H114.973V78.4628Z" fill="white"/>
<path fill-rule="evenodd" clip-rule="evenodd" d="M107.544 81.1448C107.808 81.0063 107.871 80.8678 107.871 80.5026C107.871 80.0619 107.607 79.8982 106.838 79.8353L106.196 79.7975V81.2582H106.763C107.09 81.2582 107.405 81.2078 107.544 81.1448ZM107.858 84.1795C108.173 84.0032 108.312 83.5876 108.186 83.2099C108.047 82.7818 107.821 82.681 106.952 82.6307L106.196 82.5929V84.3935L106.914 84.3431C107.304 84.318 107.732 84.2298 107.858 84.1795ZM104.307 85.6275C104.295 85.5771 104.282 83.9528 104.295 82.0137L104.32 78.5005H106.108C107.581 78.5005 107.984 78.5257 108.349 78.6391C109.193 78.9035 109.709 79.5331 109.709 80.3012C109.709 80.8426 109.52 81.2204 109.092 81.5226C108.903 81.6485 108.765 81.787 108.79 81.8248C108.815 81.8626 108.992 81.9633 109.18 82.0514C110.326 82.6055 110.49 84.0535 109.533 84.9853C108.929 85.5646 108.173 85.7157 105.894 85.7282C104.736 85.7282 104.345 85.7031 104.307 85.6275Z" fill="white"/>
<path fill-rule="evenodd" clip-rule="evenodd" d="M79.1868 82.7566C79.1616 82.7062 79.0105 82.1522 78.8468 81.5478C78.6831 80.9433 78.5194 80.4774 78.4942 80.5152C78.4187 80.5782 77.8521 82.6055 77.8521 82.7566C77.8521 82.8195 78.0535 82.8573 78.532 82.8573C79.0483 82.8573 79.212 82.8321 79.1868 82.7566ZM75.1322 85.149C75.2581 84.8342 75.8625 83.1973 76.4921 81.51L77.6254 78.4502L79.3883 78.5005L80.6978 81.9759C81.4155 83.8898 82.0199 85.5142 82.0451 85.5897C82.0955 85.7156 82.0199 85.7282 81.1511 85.7156L80.2193 85.6905L79.9801 84.9853L79.7534 84.2928H77.2351L76.7817 85.7282H74.9056L75.1322 85.149Z" fill="white"/>
<path fill-rule="evenodd" clip-rule="evenodd" d="M63.9885 85.6275C63.9633 85.5771 63.9633 83.9528 63.9759 82.0137L63.9885 78.5005L65.8647 78.4502V81.2581H68.4963L68.5467 78.5005L70.4229 78.4502V85.7282L69.4911 85.7156L68.5467 85.6905L68.4963 82.6181H65.8647V85.7282H64.9454C64.2907 85.7282 64.0137 85.7031 63.9885 85.6275Z" fill="white"/>
<path fill-rule="evenodd" clip-rule="evenodd" d="M44.6348 78.4628H47.1784L47.3295 78.9538C47.4176 79.2309 47.745 80.3515 48.0724 81.4344C48.4376 82.6684 48.6894 83.4113 48.7524 83.4113C48.8153 83.4113 48.9412 83.1343 49.0546 82.7566C49.2057 82.2529 49.9486 79.7093 50.276 78.6013C50.3138 78.4753 50.4397 78.4628 51.5855 78.4628H52.8573V85.7282H51.1826L51.1574 83.3862C51.1448 81.9507 51.107 81.0567 51.0693 81.0567C51.0189 81.0567 50.6537 82.1018 50.2634 83.3862L49.5457 85.7282H47.9087L47.6317 84.8342C47.4806 84.3305 47.1658 83.298 46.9266 82.5299C46.6999 81.7618 46.4733 81.1322 46.4229 81.1322C46.3725 81.1322 46.3473 82.0136 46.3347 83.4239L46.3096 85.7282H44.6348V78.4628Z" fill="white"/>
<path fill-rule="evenodd" clip-rule="evenodd" d="M150.129 84.3683C150.545 84.2424 150.935 83.8898 151.149 83.3862C151.313 83.0336 151.338 82.8447 151.338 82.0892C151.35 81.3463 151.313 81.1574 151.162 80.8174C150.935 80.3138 150.708 80.0745 150.305 79.8856C149.726 79.6212 148.958 79.7597 148.53 80.2256C148.429 80.3389 148.278 80.5908 148.177 80.8174C148.014 81.1574 147.988 81.3463 147.988 82.0892C147.988 82.8321 148.026 83.0336 148.177 83.3736C148.555 84.2298 149.285 84.595 150.129 84.3683ZM148.568 85.766C146.616 85.2372 145.596 83.3232 146.062 81.0819C146.352 79.7471 147.258 78.765 148.543 78.425C149.248 78.2235 150.519 78.2865 151.162 78.5383C152.446 79.0294 153.239 80.1752 153.353 81.724C153.504 83.7765 152.433 85.3883 150.658 85.8038C150.179 85.9171 149.021 85.8919 148.568 85.766Z" fill="white"/>
<path fill-rule="evenodd" clip-rule="evenodd" d="M35.2539 85.7534C35.0021 85.7031 34.574 85.5268 34.3221 85.4009C31.8667 84.0913 31.9171 80.0116 34.3977 78.7524C36.6516 77.6065 39.2455 78.7776 39.7492 81.1574C39.8625 81.6989 39.8625 82.4921 39.7492 83.0336C39.3337 85.0357 37.319 86.2571 35.2539 85.7534ZM37.0168 84.1795C37.2183 84.0409 37.4071 83.8395 37.5708 83.5625C37.7975 83.1469 37.7975 83.0966 37.7975 82.0892C37.7975 81.0945 37.7975 81.0441 37.5708 80.6286C37.2812 80.0997 36.8909 79.8353 36.3368 79.7597C36.0094 79.722 35.8709 79.7471 35.5184 79.9234C34.8006 80.276 34.4984 80.9434 34.4984 82.0892C34.4984 82.4544 34.5488 82.9329 34.6118 83.1595C34.9517 84.2676 36.0472 84.7335 37.0168 84.1795Z" fill="white"/>
<path fill-rule="evenodd" clip-rule="evenodd" d="M97.8856 85.7282H92.4586V78.4628H94.297V84.3683H97.0042V78.4628H98.8552V84.3683H99.7996V87H97.8856V85.7282Z" fill="white"/>
<path fill-rule="evenodd" clip-rule="evenodd" d="M21 84.3054L21.2392 84.255C21.617 84.192 21.7807 83.7261 21.8688 82.5173C21.9066 81.9759 22.0073 80.8426 22.0829 79.999L22.2214 78.4628H27.5477L27.5603 81.3966L27.5855 84.3305L28.0011 84.3557L28.4292 84.3809V87H26.5908L26.5782 86.383L26.553 85.766H22.6369L22.5866 87H21V84.3054ZM25.6967 82.1144L25.6716 79.8604L24.8783 79.8353C24.3872 79.8227 24.0598 79.8479 23.9969 79.8982C23.9465 79.9486 23.8709 80.5278 23.8206 81.1952C23.6695 83.1469 23.5687 83.7891 23.3924 84.0535C23.3043 84.1794 23.2288 84.2928 23.2288 84.3179C23.2288 84.3431 23.7954 84.3683 24.4753 84.3683H25.7093L25.6967 82.1144Z" fill="white"/>
</svg>
