<svg width="188" height="114" viewBox="0 0 188 114" fill="none" xmlns="http://www.w3.org/2000/svg">
<path fill-rule="evenodd" clip-rule="evenodd" d="M29.0033 47.7713C30.0373 47.7713 31.1967 47.6147 31.9173 47.3953C32.7633 46.0793 32.92 44.5753 32.92 43.6353C32.92 41.3793 30.57 38.9667 28.0947 38.9667H26.1207V47.8653H29.0033V47.7713ZM29.7867 37.87C30.8207 36.7733 31.4473 35.3633 31.4473 34.2667C31.4473 31.1333 28.8467 29.034 26.2147 29.1907V37.87H28.6273C29.0033 37.776 29.4107 37.87 29.7867 37.87ZM30.5073 38.0267C33.0767 38.5593 35.4267 40.1887 35.4267 43.0087C35.4267 46.6747 31.9173 48.8053 27.938 48.8053H23.8647V28.1567H26.7473C31.134 28.1567 33.5467 30.1307 33.5467 32.9193C33.5467 35.5827 32.074 36.9927 30.5073 38.0267Z" fill="white"/>
<path fill-rule="evenodd" clip-rule="evenodd" d="M53.4747 39.8127H59.428L56.4513 32.3867L53.4747 39.8127ZM63.0313 48.8053L59.804 40.9093H53.0047L49.8713 48.8053H48.6493L56.9213 28H57.1407L65.5067 48.8053H63.0313Z" fill="white"/>
<path fill-rule="evenodd" clip-rule="evenodd" d="M81.3927 39.186C85.9047 39.2487 87.7847 37.4 87.7847 34.2667C87.7847 30.9767 85.4347 29.3473 82.646 29.2533H81.3927V39.186ZM83.3353 28.1567C88.662 28.1567 90.2913 30.7573 90.2913 33.7967C90.2913 36.0527 89.038 37.9327 86.782 38.9667C87.7847 40.126 91.388 44.1993 93.174 45.8287C94.208 46.7687 95.4613 47.7713 96.6207 48.0847L96.558 48.6487C96.088 48.7113 95.6807 48.7113 95.2107 48.7113C93.738 48.7113 92.704 48.2413 91.6073 47.3953C89.8213 46.142 87.0013 42.6953 84.4947 39.7187C83.586 39.8753 82.552 39.9693 81.4553 39.9693V48.8053H79.1053V28.1567H83.3353Z" fill="white"/>
<path fill-rule="evenodd" clip-rule="evenodd" d="M122.815 28.1567L113.039 37.4627L124.131 48.8053H120.935L110.627 38.34V48.8053H108.277V28.1567H110.627V38.34L121.155 28.1567H122.815Z" fill="white"/>
<path fill-rule="evenodd" clip-rule="evenodd" d="M139.673 47.7087H147.976V48.8053H137.354V28.1567H139.673V47.7087Z" fill="white"/>
<path fill-rule="evenodd" clip-rule="evenodd" d="M161.418 48.8053H163.768V28.1567H161.418V48.8053Z" fill="white"/>
<path fill-rule="evenodd" clip-rule="evenodd" d="M24.0213 68.0127C22.3607 66.3834 20.512 65.6 17.9113 65.6C12.7727 65.6 9.48267 68.9527 9.48267 74.7494C9.48267 81.0787 13.7753 84.588 19.102 84.588C20.3553 84.588 21.6713 84.3687 22.768 83.8987V76.0654H25.118V82.8647C22.768 85.3714 19.948 85.998 17.3787 85.998C11.8953 86.092 7.07001 81.5487 7.07001 75.9087C7.07001 67.856 12.7727 64.5034 17.7547 64.5034C20.512 64.5034 22.3607 64.9734 24.0213 66.07V68.0127Z" fill="white"/>
<path fill-rule="evenodd" clip-rule="evenodd" d="M43.2287 76.5354H49.182L46.2053 69.1094L43.2287 76.5354ZM52.7853 85.528L49.558 77.632H42.7587L39.6567 85.528H38.4033L46.6753 64.754H46.926L55.292 85.528H52.7853Z" fill="white"/>
<path fill-rule="evenodd" clip-rule="evenodd" d="M71.6167 84.4314H79.826V85.528H69.2667V64.9107H71.6167V84.4314Z" fill="white"/>
<path fill-rule="evenodd" clip-rule="evenodd" d="M95.524 84.4314H103.733V85.528H93.174V64.9107H95.524V84.4314Z" fill="white"/>
<path fill-rule="evenodd" clip-rule="evenodd" d="M124.288 75.752H118.961V84.4314H126.168V85.528H116.643V64.9107H126.168V66.0074H118.961V74.6554H124.288V75.752Z" fill="white"/>
<path fill-rule="evenodd" clip-rule="evenodd" d="M142.273 75.9087C146.785 76.0027 148.665 74.1227 148.665 70.9894C148.665 67.6994 146.315 66.07 143.527 66.0074H142.273V75.9087ZM144.153 64.9107C149.449 64.9107 151.109 67.48 151.109 70.5194C151.109 72.8067 149.856 74.6554 147.569 75.6894C148.603 76.8487 152.206 80.922 153.992 82.5514C154.995 83.4914 156.248 84.5254 157.439 84.8387L157.345 85.3714C156.875 85.4654 156.499 85.4654 156.029 85.4654C154.525 85.4654 153.522 84.9954 152.425 84.118C150.639 82.8647 147.819 79.4494 145.313 76.4727C144.373 76.6294 143.37 76.692 142.273 76.692V85.528H139.923V64.9107H144.153Z" fill="white"/>
<path fill-rule="evenodd" clip-rule="evenodd" d="M168.75 64.9107L174.233 74.9687L179.623 64.9107H180.939L174.766 76.222V85.528H172.447V76.316L166.118 64.9107H168.75Z" fill="white"/>
</svg>
