<svg width="188" height="114" viewBox="0 0 188 114" fill="none" xmlns="http://www.w3.org/2000/svg">
<path d="M86.4491 38.1851V75.6556C86.4491 81.9417 91.7828 87 97.919 87C104.121 87 109.389 81.8281 109.389 75.7801V38.1851C109.389 32.2165 103.985 27.0052 98.4169 27C94.7565 26.9964 91.9903 28.1577 89.7656 30.4063C88.0518 32.1392 86.4491 34.9791 86.4491 38.1851ZM99.2883 61.3049C97.5922 61.4149 95.0967 61.6737 93.7637 60.9662C94.132 60.5715 94.6351 60.5746 95.3701 60.4454C95.91 60.3505 96.8577 60.35 97.4257 60.3578C97.4703 60.3583 97.5647 60.3598 97.6679 60.3604C98.3961 60.433 99.1151 60.5435 99.8251 60.6887C99.9735 60.7349 100.129 60.7784 100.249 60.8842C100.23 60.9231 100.211 60.9621 100.192 61.001H100.191C100.197 60.9875 100.219 60.9351 100.178 61.0051C99.9118 61.156 99.6089 61.2463 99.2883 61.3049ZM98.2343 58.8115C98.697 58.8395 99.1566 58.8899 99.6115 58.9672H99.612L99.6146 58.9677C100.391 59.101 101.536 59.7924 102.027 59.8282C103.108 58.5522 102.946 57.9904 102.091 56.6792C101.422 56.7342 100.9 57.1092 100.268 57.3364C98.6228 57.9287 93.6003 57.7622 92.2589 56.7907C91.7122 56.3949 91.3263 55.6465 91.7869 54.8373C92.5344 53.524 96.5299 53.373 97.9236 53.4083C100.195 53.4664 101.62 54.5468 101.903 54.5157C103.132 53.8632 102.878 52.1966 102.028 51.3745C101.555 51.4144 100.643 51.9113 100.007 52.0996C98.3541 52.5893 91.4622 52.8362 91.6179 50.1307C91.7257 48.2587 95.5516 48.1311 97.421 48.128C100.912 48.1223 101.272 48.7722 102.027 49.1545C103.143 48.045 102.789 47.0242 102.054 46.0138C101.472 46.0724 100.944 46.4651 100.308 46.6746C98.5948 47.2384 94.3638 47.0496 92.9338 46.5112C91.2797 45.8888 90.998 44.216 92.8357 43.4302C94.4281 42.7486 98.337 42.5344 100.079 43.121L101.903 43.8846C102.438 43.5879 102.875 42.7906 102.738 41.9566C102.291 39.2313 97.5009 39.0731 97.4578 39.0565C97.3391 38.7837 97.2773 38.3324 97.3214 37.9341C97.3733 37.4678 97.4283 37.4558 97.9195 37.4558C100.846 37.4574 104.037 39.3283 104.037 42.1687C104.038 44.1984 103.159 44.3171 103.139 44.9074C103.109 45.7736 105.357 46.6663 103.09 50.2603C103.581 51.0394 104.059 51.7231 104.096 52.8813C104.144 54.3565 103.36 54.7652 103.156 55.6133C103.186 55.9883 103.981 56.3633 103.984 58.103C103.988 60.3417 103.203 60.2437 103.144 60.8417C103.338 61.6524 104.09 62.0866 104.09 63.4559C104.09 65.2677 103.176 65.7532 103.148 66.1946C103.277 66.6449 103.568 66.8409 103.789 67.4286C104.747 69.9697 103.134 71.0227 103.144 71.5476C103.147 71.7359 105.269 74.2827 103.078 76.8263C101.88 78.2175 99.6089 79.2315 97.3619 78.9379C97.3499 78.6443 97.2618 77.5867 97.4584 77.3984C97.7027 77.164 99.9242 77.594 101.641 76.1458C102.942 75.0488 103.1 73.7899 102.027 72.5948C101.68 72.6239 100.61 73.1768 100.094 73.3505C97.9957 74.0575 93.953 73.6877 92.468 72.8941C91.3927 72.3199 90.8709 70.6144 93.2455 69.8737C94.4411 69.5008 96.6642 69.3146 98.0455 69.3597C100.178 69.4292 101.446 70.4443 102.026 70.5014C103.036 69.3416 102.924 68.3078 102.026 67.3295C101.451 67.3373 100.807 67.8052 100.197 67.9966C98.016 68.6797 90.3813 68.6024 91.7122 65.6096C92.3788 64.1105 96.1855 64.0893 98.1674 64.0976C100.338 64.1079 101.613 65.2485 102.026 65.095C103.259 63.9871 102.769 62.9585 102.026 61.9222C101.633 61.9522 101.382 62.1971 101.052 62.3547C98.5258 63.5633 91.857 63.334 91.6215 61.0995C91.3611 58.6222 96.394 58.7669 98.2343 58.8115ZM95.5755 49.8475C96.7794 49.7178 99.4839 49.3718 100.579 50.1748C99.8584 50.6571 98.2758 50.8029 97.2965 50.8065C97.0667 50.8076 96.2934 50.7681 95.5859 50.6898C94.9199 50.6162 94.3524 50.4357 93.8487 50.2142C94.384 50.0466 94.9629 49.9139 95.5755 49.8475ZM96.4433 29.0903C99.3272 28.4975 102.095 29.6842 103.76 30.9779C108.525 34.6798 107.434 40.0421 107.434 46.0283L107.435 74.1623C107.44 77.6941 107 79.2839 105.312 81.4313C102.153 85.4507 96.1175 86.2157 92.0992 82.9666C90.2392 81.4629 89.3102 80.1335 88.5643 77.1604C88.2105 75.7511 88.4398 69.8457 88.4398 67.9375V39.8035C88.4398 36.1954 88.7624 34.7348 90.5167 32.5226C91.9073 30.7688 93.6122 29.6723 96.4433 29.0903ZM93.4934 66.135C95.2077 65.7392 98.7603 65.2626 100.185 66.1946C99.7281 66.5935 99.3355 66.578 98.628 66.6848C97.9905 66.7808 97.3167 66.7569 96.6715 66.7216C95.8291 66.677 93.8373 66.7388 93.4934 66.135ZM93.6636 55.6361C93.8093 55.4623 93.7248 55.5199 93.9691 55.4042C94.534 55.1356 96.3525 55.0868 96.9231 55.0858C97.5382 55.0847 99.862 54.9582 100.139 55.6133C99.6778 56.2891 95.007 56.2679 93.6636 55.6361ZM93.6584 44.8789C94.5339 44.4375 99.7774 43.9841 100.219 45.0319C99.0684 45.5724 96.5657 45.4998 95.1844 45.3099C94.4717 45.2124 94.0204 45.2669 93.6584 44.8789ZM93.7108 71.5481C94.0018 71.0875 96.3779 71.033 97.0476 71.0221C97.7893 71.0097 98.9911 71.0123 99.7193 71.268C99.9087 71.3344 99.9958 71.3375 100.039 71.3577L100.477 71.5081L100.111 71.6726L100.105 71.6752C99.0336 72.155 94.1875 72.1975 93.7108 71.5481ZM26.8495 28.5981C27.3376 28.8253 27.7002 28.7153 28.2318 29.0691C28.5778 29.2994 28.9595 29.7211 29.1276 30.1599C29.8522 32.0531 29.4347 44.3913 29.4347 46.0278C29.4347 47.8085 29.5177 49.5212 29.2251 51.1561C28.7744 53.6754 27.7748 53.5307 27.2499 53.8025C26.712 54.0805 27.0222 53.6791 26.9091 54.328C27.7468 54.6148 34.1237 54.4338 35.5511 54.3923C40.2199 54.2579 44.8907 52.3585 47.2736 48.6565C50.5751 43.5272 50.1062 35.074 45.2274 31.1174C43.9431 30.0759 42.5576 29.4342 40.7484 28.8746C36.8847 27.679 31.6106 27.9964 27.46 27.9954C26.934 27.9959 26.8625 28.0794 26.8495 28.5981ZM32.0214 29.4431C32.1708 29.3575 31.9239 29.4192 32.3274 29.3367L33.0614 29.3103C40.9378 29.3025 46.1475 32.3446 46.7046 40.0504C47.2456 47.5305 42.2604 53.1894 35.5506 53.1785C32.524 53.1739 31.9617 53.4861 31.913 51.6333C31.7107 43.8628 31.886 37.1343 32.0214 29.4431ZM113.919 28.5997C114.501 28.9114 115.399 28.8574 116.182 30.1293C116.766 31.0775 116.859 32.0344 116.888 33.4552C116.987 38.224 116.85 44.1838 116.86 49.1405C116.863 50.4351 116.806 51.4523 116.223 52.3953C115.711 53.2257 115.238 53.3652 114.549 53.6677C113.892 53.956 114.132 53.7081 114.009 54.3477L121.061 54.3897C121.389 54.2626 121.209 54.4431 121.376 54.12C121.033 53.5281 121.548 54.1329 120.266 53.6635C119.078 53.2283 118.686 52.0555 118.574 50.7925C118.423 49.0959 118.666 41.2994 118.604 38.5591C118.571 37.1218 118.443 33.6419 118.655 32.3887C119.391 32.7518 134.63 54.1049 135.292 54.3591C135.677 54.5069 136.305 54.4249 136.587 54.329C136.641 54.2076 136.638 54.274 136.683 53.9929L136.711 52.6204C136.701 51.9357 136.594 51.6162 136.596 50.8874C136.6 49.6763 136.568 48.4781 136.563 47.2727C136.552 44.8695 136.525 42.4519 136.527 40.0524C136.528 37.6457 136.528 35.2389 136.527 32.8322C136.526 31.5111 136.472 29.6101 137.899 28.8855C138.383 28.6401 138.738 28.7864 138.828 28.4389C138.966 27.9119 138.798 28.1857 138.745 28.1059C138.144 27.7755 135.896 27.9959 135.016 27.9959C132.76 27.9959 131.799 27.6567 131.825 28.5742C133.069 29.22 134.463 28.5156 134.554 31.4629C134.612 33.3691 134.541 35.2882 134.569 37.1944C134.623 40.8549 134.777 44.8172 134.726 48.614C134.313 48.461 134.538 48.572 134.293 48.3811C134.214 48.3194 134.069 48.1327 133.998 48.0351L122.978 33.2995C121.671 31.5624 120.271 29.3435 119.207 28.0223L113.94 28.0078L113.919 28.5997ZM64.2546 34.2021C64.2551 41.1479 73.4127 40.485 76.4725 42.8306C83.271 48.0424 74.6508 57.7109 66.8657 51.1857C63.8734 48.6778 65.4564 46.4692 63.9896 47.0242C63.7276 47.6311 63.8552 51.93 63.89 52.7511C66.831 54.5043 69.1817 54.9208 72.7706 54.9208C77.3496 54.9208 81.9649 51.791 81.966 47.3977C81.967 44.1818 80.6303 42.4836 78.2672 40.9088C74.558 38.4377 66.0078 38.9637 67.3808 33.0371C68.3902 28.6826 74.9138 28.0078 77.5 30.8461C78.7501 32.2186 78.6826 32.7404 79.3315 34.615L79.9083 34.6274C80.0774 33.2077 79.9768 30.8705 79.9747 29.3471C79.9732 28.3507 78.9114 28.1442 77.7578 27.8512C72.7519 26.5788 64.2546 28.1147 64.2546 34.2021ZM52.9139 28.4757C53.3527 28.6738 55.1713 28.6225 55.3222 30.5925C55.4233 31.9115 55.3637 33.8229 55.3637 35.198L55.3632 51.0078C55.3632 52.2999 54.9799 53.248 53.8797 53.65C53.0851 53.9405 53.0327 53.5629 52.9072 54.3305C53.0498 54.371 59.9401 54.7305 60.6103 54.2444C60.5055 53.2698 59.8348 54.0354 58.6745 53.0265C57.8451 52.305 58.1169 51.6567 58.0168 50.4108C57.7419 46.9853 57.9271 35.2851 57.9209 31.3389C57.9162 28.2558 59.6574 29.0613 60.5703 28.6002L60.5916 28.1022C59.424 27.8242 55.095 27.9943 53.6012 27.9964C53.0653 27.9964 52.8651 27.9077 52.9139 28.4757ZM55.6599 59.531C57.4317 59.7872 58.1231 60.2322 58.1377 62.834L58.2445 79.7642C58.2445 80.7362 58.1148 82.617 57.786 83.4511C57.1122 85.1607 55.4379 84.0984 55.6734 85.2888L62.8137 85.3288C63.336 85.3288 63.2883 85.3775 63.4543 84.9921C62.8163 83.9776 60.8126 85.8864 60.8038 79.8882L60.7986 72.7961C64.2271 72.6192 72.6829 72.7738 76.6317 72.7738C77.1883 72.7738 76.9896 73.5285 77.0067 74.1608C77.0534 75.9015 77.1603 82.0465 76.8283 83.2146C76.2282 85.3272 75.1348 84.0336 75.1462 85.2276C76.4108 85.4865 79.5364 85.3096 81.121 85.3355C81.8659 85.3474 82.0339 85.4755 82.1247 84.8396C80.8975 84.3925 79.5115 84.988 79.512 80.0127L79.5115 63.3314C79.5126 62.3584 79.7257 61.3039 80.1319 60.6031C81.0764 58.9718 82.0568 60.1788 82.09 59.0989C81.6812 58.8344 76.2308 58.9039 75.3796 58.9474C74.8759 58.9734 75.0808 58.8904 74.7292 59.0989C74.7987 60.0813 74.9392 59.143 75.9388 59.9174C77.2064 60.8993 76.9834 63.4233 76.9875 65.0743L76.9419 70.9718L60.8603 70.9962C60.6134 69.8774 60.8043 65.4099 60.8027 63.9544C60.8012 62.7152 60.7296 61.8096 61.213 60.8531C61.9293 59.435 62.8095 59.8904 63.3848 59.4205C63.9839 58.7929 62.3816 58.9049 62.0668 58.9049H56.3404C55.7346 58.9039 55.5867 58.8816 55.6599 59.531ZM113.193 59.5102C115.957 60.1244 115.614 61.5969 115.614 64.7008C115.616 65.94 115.65 67.1895 115.65 68.4354C115.65 69.757 115.763 70.9609 115.759 72.169C115.751 74.5244 115.541 77.4327 116.06 79.5567C117.678 86.1851 125.518 87.3501 130.791 84.5072C132.199 83.7473 134.771 81.5755 135.265 81.4878C135.493 86.139 133.793 85.3163 139.995 85.3298C140.681 85.3319 140.8 85.2982 140.657 84.5793C137.846 84.2634 137.944 83.2965 137.949 79.8882L137.95 60.8417C137.95 58.3784 138.819 58.9028 133.523 58.9044C132.933 58.9044 132.757 58.8733 132.861 59.5118C134.681 59.8816 135.307 60.2079 135.32 63.207L135.284 76.1567C135.165 82.298 124.244 86.6478 120.18 81.659C119.192 80.4463 118.371 78.0084 118.371 76.0291L118.496 58.9485L113.966 58.8956C113.343 58.8925 113.075 58.8256 113.193 59.5102ZM143.378 83.6228C145.125 84.988 148.251 85.6244 150.87 85.9087C153.656 86.2111 156.938 84.9709 158.515 83.7218C160.294 82.3125 161.799 79.9784 161.358 76.7895C161.014 74.307 158.615 72.2743 156.883 71.3458C153.64 69.6077 148.089 69.7036 146.953 66.4529C145.4 62.0051 150.476 58.9407 154.696 60.3282C159 61.7437 158.159 66.4976 159.275 65.4327C159.584 64.9342 159.427 60.6794 159.379 59.7359C156.179 57.3374 146.42 57.838 144.147 62.7557C142.903 65.4472 143.864 68.3804 146.525 70.1186C149.358 71.9693 152.381 72.0201 154.372 72.8713C160.863 75.6473 158.816 83.644 152.45 84.2369C148.781 84.5787 145.166 82.0553 144.322 79.1719C144.283 79.0401 144.13 78.2698 144.082 78.1801C143.841 77.7304 143.464 77.8653 143.355 78.2704C143.278 78.5541 143.323 83.1264 143.378 83.6228ZM178.889 70.3686C178.748 70.4791 178.841 70.4619 178.584 70.5455C178.354 70.6207 178.57 70.5558 178.345 70.5911C177.075 70.7897 170.392 70.7068 169.833 70.5911C169.701 69.6517 169.909 60.698 170.126 60.2193C170.605 60.0486 176.188 60.1394 177.466 60.1394C177.883 60.1394 178.299 60.1379 178.716 60.1363C179.496 60.1337 179.419 60.1238 179.747 60.3806C181.095 60.4579 181.487 61.9279 181.619 63.2863L182.387 63.3071C182.468 62.2292 182.7 59.9537 182.497 58.9225L164.966 58.9044L164.892 59.4692C165.358 59.7307 166.734 59.7877 167.176 60.934C167.561 61.933 167.401 77.7786 167.401 80.0127C167.401 83.8391 167.738 83.9568 165.266 84.5896C164.549 84.7727 164.795 84.5979 164.696 85.2027C165.342 85.3853 182.168 85.4102 182.899 85.1986C183.097 84.7183 183.011 83.7716 183.013 83.1248C183.016 82.1212 183.387 81.4401 182.445 81.4271C182.083 81.9241 182.237 83.1658 181.001 83.6477C180.318 83.9138 174.725 83.8204 173.607 83.8002C172.983 83.7888 172.367 83.7722 171.74 83.7649C169.284 83.7369 169.961 84.1612 169.961 77.8959C169.961 76.1697 169.758 73.6296 169.953 72.0263C172.084 72.0253 174.215 72.0263 176.347 72.0263C180.998 72.0263 179.544 72.1363 180.473 74.2489C181.436 74.3812 181.241 74.1229 181.224 73.1685L181.222 69.4271C181.234 68.5625 181.439 68.2295 180.612 68.2336C180.121 68.8804 180.414 70.1824 178.889 70.3686ZM178.889 70.3686C178.748 70.4791 178.841 70.4619 178.584 70.5455C178.354 70.6207 178.57 70.5558 178.345 70.5911C177.075 70.7897 170.392 70.7068 169.833 70.5911C169.701 69.6517 169.909 60.698 170.126 60.2193C170.605 60.0486 176.188 60.1394 177.466 60.1394C177.883 60.1394 178.299 60.1379 178.716 60.1363C179.496 60.1337 179.419 60.1238 179.747 60.3806L172.486 60.3443C170.654 60.3443 171.224 60.254 170.178 60.4636L169.939 70.4879C172.963 70.5045 175.889 70.4391 178.889 70.3686ZM20.023 29.524C21.4167 29.3964 21.7865 31.3425 21.9333 32.3799C22.8607 32.5661 22.7171 32.4354 22.7435 30.5883C22.7881 27.4544 23.9521 27.9964 18.497 27.9964C15.8952 27.9964 6.37299 27.8138 5.13901 28.0644C5.04254 29.2133 6.1681 28.2786 7.2501 29.6329C7.75427 30.2641 7.59762 32.4193 7.59659 33.3307L7.70344 48.8915C7.70344 49.8594 7.89847 51.9933 7.48092 52.6982C7.26203 53.0675 6.83929 53.3404 6.31437 53.5063C5.12605 53.8819 5.08818 53.3927 5 54.3285C5.64681 54.5499 22.3757 54.5582 23.0563 54.3295L23.1035 50.5653C21.9032 50.6198 23.0236 51.7936 21.4162 52.6707C20.44 53.2034 13.8738 52.901 12.1471 52.8632C11.2171 52.8429 10.5526 52.8414 10.3763 52.6536C10.1206 52.1287 10.161 42.4701 10.2539 41.1458C11.105 41.0862 18.9824 40.9627 19.6645 41.2501C20.5354 41.6173 20.467 42.4244 20.7771 43.37L21.4395 43.3835C21.5905 42.4862 21.4846 39.6976 21.5064 38.431C21.5235 37.4501 21.7087 37.3111 20.8321 37.2971C20.4701 38.1965 20.4172 39.3994 19.2553 39.373L14.8874 39.4601C13.3831 39.4601 11.8774 39.4539 10.3737 39.4601C10.2284 38.1908 10.3291 35.809 10.3612 34.4505C10.3825 33.5527 10.1356 30.0136 10.6356 29.5733C11.021 29.1993 18.8704 29.5919 20.023 29.524Z" fill="white"/>
</svg>
