<svg width="188" height="114" viewBox="0 0 188 114" fill="none" xmlns="http://www.w3.org/2000/svg">
<path fill-rule="evenodd" clip-rule="evenodd" d="M60.1441 77.8743V81.8717H59.5731V77.2398H60.4614L61.9208 80.7296L63.3167 77.2398H64.2684V81.8717H63.6339V77.8743L62.238 81.3641H61.6035L60.1441 77.8743Z" fill="white"/>
<path fill-rule="evenodd" clip-rule="evenodd" d="M70.9304 79.6509C70.9304 78.5088 70.2959 77.8743 69.3441 77.8743C68.3924 77.8743 67.7578 78.5088 67.7578 79.6509C67.7578 80.7296 68.3924 81.3641 69.3441 81.3641C70.2959 81.3641 70.9304 80.6027 70.9304 79.6509ZM67.1233 79.6509C67.1233 78.1916 67.9482 77.2398 69.3441 77.2398C70.8035 77.2398 71.5649 78.1916 71.5649 79.6509C71.5649 81.0468 70.8035 81.9986 69.3441 81.9986C67.9482 81.9986 67.1233 81.0468 67.1233 79.6509Z" fill="white"/>
<path fill-rule="evenodd" clip-rule="evenodd" d="M74.7375 80.6041C74.8644 81.2386 75.372 81.3655 76.0065 81.3655C76.641 81.3655 77.0852 81.0482 77.0852 80.6041C77.0852 80.0965 76.7679 79.9696 76.3238 79.7792L75.4989 79.6523C74.7375 79.462 74.2299 79.1447 74.2299 78.3833C74.2299 77.5584 74.8644 77.1143 75.8162 77.1143C76.7679 77.1143 77.4024 77.5584 77.4024 78.3833L76.9583 78.5102C76.7679 78.066 76.4507 77.7488 75.8162 77.7488C75.1817 77.7488 74.7375 78.066 74.7375 78.5102C74.7375 79.0178 75.0548 79.1447 75.4989 79.3351L76.3238 79.462C77.0852 79.6523 77.4024 79.9696 77.4024 80.731C77.4024 81.5558 76.641 82 75.6893 82C74.7375 82 74.103 81.6827 73.9126 80.731L74.7375 80.6041Z" fill="white"/>
<path fill-rule="evenodd" clip-rule="evenodd" d="M83.7475 80.2868L84.2551 80.4137C84.0648 81.3655 83.4303 81.8731 82.3516 81.8731C81.0826 81.8731 80.2577 81.0482 80.2577 79.462C80.2577 78.0661 81.0826 77.1143 82.3516 77.1143C83.4303 77.1143 84.0648 77.5584 84.2551 78.5102L83.7475 78.7006C83.6206 78.066 83.3034 77.7488 82.3516 77.7488C81.3998 77.7488 80.7653 78.5102 80.7653 79.462C80.7653 80.6041 81.2095 81.2386 82.3516 81.2386C83.3034 81.3655 83.6206 80.9213 83.7475 80.2868Z" fill="white"/>
<path fill-rule="evenodd" clip-rule="evenodd" d="M90.727 79.6509C90.727 78.5088 90.0925 77.8743 89.1407 77.8743C88.189 77.8743 87.5545 78.5088 87.5545 79.6509C87.5545 80.7296 88.189 81.3641 89.1407 81.3641C90.0925 81.3641 90.727 80.6027 90.727 79.6509ZM86.92 79.6509C86.92 78.1916 87.7448 77.2398 89.1407 77.2398C90.5367 77.2398 91.3615 78.1916 91.3615 79.6509C91.3615 81.0468 90.5367 81.9986 89.1407 81.9986C87.7448 81.9986 86.92 81.0468 86.92 79.6509Z" fill="white"/>
<path fill-rule="evenodd" clip-rule="evenodd" d="M98.3411 81.0468L99.4198 77.2398H100.054L98.6584 81.8717H98.0238L96.7548 77.8743L95.2955 81.8717H94.8513L93.265 77.2398H93.8995L95.1686 81.0468L96.2472 77.2398H97.0721L98.3411 81.0468Z" fill="white"/>
<path fill-rule="evenodd" clip-rule="evenodd" d="M105.257 77.2398H105.892L107.478 81.0468L108.938 77.2398H109.572L107.795 81.8717H107.161L105.257 77.2398Z" fill="white"/>
<path fill-rule="evenodd" clip-rule="evenodd" d="M112.11 81.6813H112.745V77.2398H112.11V81.6813Z" fill="white"/>
<path fill-rule="evenodd" clip-rule="evenodd" d="M118.899 81.8717H115.917V77.2398H116.361V81.2372H118.899V81.8717Z" fill="white"/>
<path fill-rule="evenodd" clip-rule="evenodd" d="M124.42 81.8717H121.247V77.2398H121.755V81.2372H124.42V81.8717Z" fill="white"/>
<path fill-rule="evenodd" clip-rule="evenodd" d="M129.179 79.9682L128.417 77.7474L127.592 79.9682H129.179ZM130.448 81.8717H129.813L129.369 80.6027H127.275L126.831 81.8717H126.196L127.91 77.4301H128.544L130.448 81.8717Z" fill="white"/>
<path fill-rule="evenodd" clip-rule="evenodd" d="M132.795 80.6041C132.986 81.2386 133.43 81.3655 134.064 81.3655C134.699 81.3655 135.206 81.0482 135.206 80.6041C135.206 80.0965 134.889 79.9696 134.382 79.7792L133.62 79.6523C132.795 79.462 132.351 79.1447 132.351 78.3833C132.351 77.5584 132.986 77.1143 133.937 77.1143C134.889 77.1143 135.524 77.5584 135.524 78.3833L135.016 78.5102C134.889 78.066 134.572 77.7488 133.937 77.7488C133.303 77.7488 132.795 78.066 132.795 78.5102C132.795 79.0178 133.112 79.1447 133.62 79.3351L134.382 79.462C135.206 79.6523 135.524 79.9696 135.524 80.731C135.524 81.5558 134.699 82 133.747 82C132.795 82 132.161 81.6827 132.034 80.731L132.795 80.6041Z" fill="white"/>
<path fill-rule="evenodd" clip-rule="evenodd" d="M141.361 35.2994L139.013 32L128.861 40.6928L129.178 41.2004L141.361 35.2994Z" fill="white"/>
<path fill-rule="evenodd" clip-rule="evenodd" d="M33.8753 65.3753C24.548 65.3753 18.203 59.411 18.203 49.5761C18.203 39.9316 23.9135 33.9037 32.6063 33.9037C37.8727 33.9037 42.6315 35.8073 44.2178 41.2006L44.5351 42.4696H44.8523V34.4113C42.6315 33.4596 37.9996 32.1906 33.4312 32.1906C22.01 32.1906 13 38.6625 13 51.6065C13 63.0277 21.3755 69.0555 31.4007 69.0555C39.1417 69.0555 43.3929 65.8829 46.1213 61.6317L45.8041 61.3145C42.9488 63.6622 39.1417 65.3753 33.8753 65.3753Z" fill="white"/>
<path fill-rule="evenodd" clip-rule="evenodd" d="M115.727 64.1057V49.5755C115.727 45.3243 113.696 42.5959 109.064 42.5959C104.813 42.5959 101.006 45.4512 100.054 49.2582C99.9274 45.007 97.7066 42.5959 93.392 42.5959C89.7753 42.5959 85.651 44.8166 84.382 49.3851V42.7862H83.9378L75.8161 44.4994V45.007L76.9582 45.1339C78.9887 45.3243 79.9404 46.4029 79.9404 48.7506V64.2961C79.9404 66.5168 79.179 67.7858 76.9582 68.1031L76.3237 68.23V68.7376H88.0621V68.23L87.4276 68.1031C85.2068 67.7858 84.382 66.5168 84.382 64.2961V54.3343C84.382 47.9892 88.3159 45.3243 91.3616 45.3243C94.3438 45.3243 95.6128 46.9105 95.6128 50.3369V64.1057C95.6128 66.3265 94.8514 67.5955 92.6306 67.9127L91.9961 68.1031V68.5473H103.671V68.1031L103.037 67.9127C100.879 67.5955 100.054 66.3265 100.054 64.1057V54.3343C100.054 47.9892 104.179 45.3243 107.351 45.3243C110.333 45.3243 111.285 47.0374 111.285 50.3369V64.1057C111.285 66.3265 110.524 67.5955 108.303 67.9127L107.668 68.1031V68.5473H119.343V68.1031L118.709 67.9127C116.678 67.5955 115.727 66.3265 115.727 64.1057Z" fill="white"/>
<path fill-rule="evenodd" clip-rule="evenodd" d="M162.236 67.1513C157.033 67.1513 153.226 62.3925 153.226 55.286C153.226 48.7506 156.589 44.3725 161.285 44.3725C166.234 44.3725 169.724 49.0679 169.724 56.2378C169.85 62.7098 166.678 67.1513 162.236 67.1513ZM161.792 42.5959C155.32 42.5959 148.658 47.3547 148.658 56.0474C148.658 64.4229 154.813 68.8645 161.792 68.8645C168.264 68.8645 174.609 64.1057 174.609 55.4129C174.609 47.0374 168.772 42.5959 161.792 42.5959Z" fill="white"/>
<path fill-rule="evenodd" clip-rule="evenodd" d="M65.5371 54.6515C65.5371 62.7098 62.555 66.3265 58.621 66.3265C55.8926 66.3265 54.1794 64.9306 54.1794 62.0753C54.1794 58.7758 56.8444 56.8723 62.9991 55.0957L65.5371 54.4612V54.6515ZM69.9787 64.296V51.1617C69.9787 45.6415 67.4407 42.5959 61.6032 42.5959C56.7175 42.5959 52.5932 45.6415 51.3242 49.3851L51.6414 49.5755C53.3546 47.0374 56.5271 45.007 59.89 45.007C63.824 45.007 65.5371 47.2278 65.5371 52.1135V52.5576L61.2859 53.6998C54.3063 55.6033 49.7379 58.1413 49.7379 63.027C49.7379 66.6437 51.9587 68.8645 56.4002 68.8645C61.2859 68.8645 64.2681 65.692 65.4102 62.2656V68.4204H73.6588V67.9127L73.0243 67.7858C70.8036 67.5955 69.9787 66.6437 69.9787 64.296Z" fill="white"/>
<path fill-rule="evenodd" clip-rule="evenodd" d="M139.648 53.1922H126.831C126.958 48.1795 130.003 44.3725 134.255 44.3725C138.696 44.3725 139.775 48.3064 139.775 51.2886C139.648 51.6059 139.648 52.5576 139.648 53.1922ZM134.572 42.5959C128.227 42.5959 122.199 46.9105 122.199 56.2378C122.199 64.1057 126.958 68.8645 134.255 68.8645C139.648 68.8645 142.503 66.0092 143.899 63.7884L143.582 63.6615C141.678 65.5651 139.458 66.6437 136.475 66.6437C130.892 66.6437 126.958 62.3925 126.831 55.286H144.216C144.343 54.3343 144.343 53.5094 144.343 52.4307C144.216 47.3547 141.361 42.5959 134.572 42.5959Z" fill="white"/>
</svg>
